<?xml version="1.0" encoding="UTF-8" standalone="no"?>
<svg
   width="2.632735in"
   height="0.96350068in"
   viewBox="0 0 66.871469 24.472917"
   version="1.1"
   id="svg8"
   inkscape:version="1.2.2 (b0a8486541, 2022-12-01)"
   sodipodi:docname="logo-c-bt.svg"
   xmlns:inkscape="http://www.inkscape.org/namespaces/inkscape"
   xmlns:sodipodi="http://sodipodi.sourceforge.net/DTD/sodipodi-0.dtd"
   xmlns="http://www.w3.org/2000/svg"
   xmlns:svg="http://www.w3.org/2000/svg"
   xmlns:rdf="http://www.w3.org/1999/02/22-rdf-syntax-ns#"
   xmlns:cc="http://creativecommons.org/ns#"
   xmlns:dc="http://purl.org/dc/elements/1.1/">
  <defs
     id="defs2" />
  <sodipodi:namedview
     id="base"
     pagecolor="#ffffff"
     bordercolor="#666666"
     borderopacity="1.0"
     inkscape:pageopacity="0.0"
     inkscape:pageshadow="2"
     inkscape:zoom="1.4"
     inkscape:cx="127.85714"
     inkscape:cy="94.285714"
     inkscape:document-units="mm"
     inkscape:current-layer="layer1"
     inkscape:document-rotation="0"
     showgrid="false"
     units="in"
     inkscape:showpageshadow="false"
     borderlayer="true"
     inkscape:window-width="1920"
     inkscape:window-height="978"
     inkscape:window-x="0"
     inkscape:window-y="0"
     inkscape:window-maximized="1"
     inkscape:pagecheckerboard="0"
     inkscape:deskcolor="#d1d1d1" />
  <metadata
     id="metadata5">
    <rdf:RDF>
      <cc:Work
         rdf:about="">
        <dc:format>image/svg+xml</dc:format>
        <dc:type
           rdf:resource="http://purl.org/dc/dcmitype/StillImage" />
      </cc:Work>
    </rdf:RDF>
  </metadata>
  <g
     inkscape:label="Layer 1"
     inkscape:groupmode="layer"
     id="layer1"
     transform="translate(-181.35868,-76.288118)">
    <g
       id="g16151">
      <path
         id="path132914"
         style="fill:#54301e;fill-opacity:1;stroke-width:0.0564909"
         d="m 231.48995,77.885308 c -0.076,0.009 -0.28797,0.08088 -0.87626,0.27859 -2.47619,0.832276 -4.2524,1.887258 -5.75763,3.419687 -1.93184,1.96672 -2.93692,4.235484 -3.12433,7.05253 -0.0682,1.022321 0.17497,2.641321 0.56236,3.746602 0.23399,0.667615 0.63222,1.497349 0.99434,2.071948 0.28336,0.449632 0.24452,0.397563 0.80081,1.073332 1.58885,1.930017 3.98366,3.1774 6.82194,3.553405 v 1.09e-4 c 0.71511,0.09474 2.58937,0.112396 3.39759,0.03196 0.79986,-0.07957 2.32367,-0.334786 2.39193,-0.400625 0.0354,-0.03401 -0.0682,-0.03734 -0.28245,-0.0093 -0.5449,0.0716 -3.21605,0.0497 -3.78412,-0.031 -0.86252,-0.122549 -0.88555,-0.136992 -0.56535,-0.355053 0.10858,-0.07393 0.19783,-0.156291 0.19783,-0.183044 0,-0.07717 0.77288,-1.025186 0.99156,-1.217209 0.30542,-0.268161 0.59364,-0.39087 1.137,-0.484133 0.7018,-0.120467 0.96644,-0.190309 1.76962,-0.46704 0.38839,-0.133822 0.7469,-0.25739 0.79663,-0.274516 0.0497,-0.01716 0.1305,0.009 0.17951,0.05803 0.10196,0.101908 0.51671,0.120101 0.74641,0.03272 0.16492,-0.0627 1.13624,-0.09771 1.19104,-0.04291 0.0193,0.01922 -0.0104,0.111353 -0.0654,0.204675 -0.0832,0.140828 -0.0878,0.184658 -0.0268,0.258061 0.0403,0.04862 0.12381,0.0885 0.18559,0.0885 0.093,0 0.10585,0.02542 0.075,0.148291 -0.0332,0.132573 -0.0235,0.145382 0.0927,0.120255 0.0716,-0.01551 0.17446,-0.04676 0.22886,-0.06964 0.0823,-0.03471 0.0989,-0.01096 0.0989,0.143762 0,0.185362 0,0.185389 0.12706,0.06963 0.22266,-0.202792 0.38173,-0.252962 0.96125,-0.303306 0.72895,-0.06334 0.92358,-0.127538 1.19952,-0.39554 0.12434,-0.12069 0.3561,-0.334781 0.51517,-0.475763 0.37174,-0.329446 0.49999,-0.64284 0.45698,-1.117015 -0.0352,-0.387853 0.003,-0.519394 0.19993,-0.719265 0.25596,-0.257703 0.3918,-0.598594 0.34989,-0.877926 -0.0829,-0.553105 -0.29495,-0.945512 -0.7923,-1.466443 -0.3888,-0.407191 -0.74954,-0.917613 -0.9982,-1.412277 -0.26814,-0.533351 -0.83301,-2.366128 -0.83301,-2.702728 0,-0.161639 0.1842,-0.319524 0.37281,-0.319524 0.21625,0 0.53604,-0.169613 0.81934,-0.43461 0.31695,-0.296492 0.36124,-0.463723 0.12134,-0.458002 -0.33836,0.0081 -0.61762,-0.181232 -1.1298,-0.765709 -0.25063,-0.286012 -0.30023,-0.481086 -0.15338,-0.602974 0.0699,-0.05803 0.14793,-0.05841 0.40106,-0.0013 0.42851,0.09589 2.63049,0.103072 3.18414,0.01043 0.95627,-0.160133 1.53514,-0.395316 2.17491,-0.883658 0.91766,-0.700493 1.43956,-1.640656 1.55669,-2.804242 0.0648,-0.644095 0.0248,-1.129019 -0.13871,-1.685786 -0.0994,-0.338196 -0.43584,-0.752317 -0.58741,-0.723122 -0.0532,0.01021 -0.11926,0.130343 -0.16463,0.299438 -0.0695,0.258746 -0.11808,0.489964 -0.32734,1.553502 -0.22501,1.143813 -0.78654,1.834129 -1.71582,2.109469 -0.28656,0.08492 -2.17444,0.0766 -2.88788,-0.01262 -0.32623,-0.04079 -0.70751,-0.08552 -0.84734,-0.09941 -0.13981,-0.0139 -0.572,-0.06703 -0.96037,-0.118162 -0.71073,-0.0936 -0.83375,-0.100959 -1.29929,-0.07713 -0.39242,0.02011 -0.46108,-0.0013 -0.55882,-0.172887 -0.0662,-0.116354 -0.1285,-0.155964 -0.22963,-0.145977 -0.12406,0.01224 -0.145,-0.01608 -0.19769,-0.268662 -0.0708,-0.339111 -0.11965,-0.423498 -0.24585,-0.424568 -0.23676,-0.0019 -0.24689,-0.07832 -0.0694,-0.521655 0.0944,-0.235656 0.17157,-0.494126 0.17157,-0.574395 0,-0.123656 -0.0253,-0.145857 -0.16516,-0.145857 -0.17119,0 -0.2295,0.05624 -0.57695,0.55652 -0.1706,0.245614 -0.17101,0.245788 -0.4346,0.204116 -0.39579,-0.06258 -0.71757,-0.03363 -1.00782,0.09081 -0.2489,0.106708 -0.26568,0.107329 -0.37025,0.01262 -0.10468,-0.09472 -0.11913,-0.09401 -0.32295,0.01768 -0.17295,0.09473 -0.23112,0.103936 -0.30717,0.0483 -0.13956,-0.102021 -0.55247,-0.04125 -1.17352,0.172785 -0.34265,0.118109 -0.67762,0.193349 -0.90121,0.202465 -0.20612,0.0082 -0.53531,0.07776 -0.78225,0.164834 -0.71734,0.252898 -0.82207,0.281023 -1.04728,0.281023 -0.12785,0 -0.2625,0.04073 -0.32671,0.09886 -0.0793,0.07173 -0.18891,0.09531 -0.39984,0.08606 -0.15989,-0.0071 -0.65935,-0.02869 -1.10986,-0.04823 -1.02008,-0.04426 -1.69721,0.0362 -2.68331,0.318865 -0.40391,0.115765 -0.78304,0.230141 -0.8425,0.25421 -0.0839,0.03395 -0.0977,0.02588 -0.0615,-0.03644 0.26902,-0.464658 1.74566,-1.957785 2.50381,-2.531713 0.93567,-0.708337 2.25234,-1.459148 3.13149,-1.785744 0.14757,-0.05482 0.26832,-0.12167 0.26832,-0.148514 0,-0.02627 0.004,-0.0435 -0.0426,-0.03811 z m 16.11482,1.11911 h 1.1e-4 c 0.09,0 0.27647,0.409189 0.35514,0.779505 0.0875,0.412008 0.0778,1.147304 -0.0209,1.621358 -0.0452,0.217491 -0.20146,0.636646 -0.347,0.931439 -0.53989,1.093707 -1.55986,1.815764 -2.97625,2.107042 -0.51905,0.106741 -0.62717,0.06592 -0.64897,-0.244501 -0.018,-0.256779 -0.1203,-0.457233 -0.12719,-0.249132 -0.0157,0.474156 -0.0774,0.620723 -0.2368,0.559606 -0.1177,-0.04516 -0.17422,-0.198584 -0.10041,-0.272408 0.0734,-0.07346 0.0763,-0.356846 0.005,-0.401503 -0.0298,-0.01838 -0.10702,-0.0013 -0.17168,0.03894 -0.0903,0.05566 -0.10844,0.105364 -0.078,0.21382 0.0796,0.28554 0.0573,0.422416 -0.0696,0.429308 -0.0658,0.0032 -0.14783,0.02396 -0.1825,0.04535 -0.10649,0.06582 -0.28025,-0.0692 -0.35493,-0.275727 -0.0467,-0.128928 -0.13448,-0.226446 -0.25554,-0.283892 -0.10145,-0.0481 -0.19957,-0.112314 -0.21836,-0.142545 -0.0593,-0.09575 -0.14131,-0.05976 -0.19682,0.08628 -0.0747,0.196368 -0.17729,0.177453 -0.48581,-0.08959 -0.2632,-0.227791 -0.34328,-0.246282 -0.59922,-0.138478 -0.0732,0.0308 -0.10545,0.0051 -0.13329,-0.105806 -0.0451,-0.179918 -0.13611,-0.192671 -0.13826,-0.01922 -0.003,0.349615 -0.2404,0.339987 -0.37996,-0.01531 -0.0595,-0.151192 -0.13362,-0.238288 -0.22209,-0.260489 -0.15547,-0.03901 -0.301,0.06212 -0.301,0.2093 0,0.147432 -0.16163,0.222954 -0.32142,0.150167 -0.24726,-0.112672 -0.18995,4.73e-4 0.19694,0.388923 0.69205,0.694581 0.96449,1.370957 0.99169,2.461551 0.0168,0.673968 0.0808,0.967303 0.55333,2.531385 0.25626,0.848392 0.80498,1.792508 1.42816,2.457349 0.4898,0.52254 0.62639,0.765074 0.70879,1.258573 0.0859,0.514104 0.013,0.673244 -0.32219,0.700954 -0.21158,0.01762 -0.21158,0.01768 -0.21371,0.554314 -0.003,0.74429 -0.11797,1.06311 -0.53766,1.4744 -0.34678,0.339873 -0.56324,0.44851 -0.56324,0.282778 0,-0.05303 0.0277,-0.124125 0.0618,-0.15811 0.034,-0.03395 0.0529,-0.105126 0.0425,-0.158 -0.0175,-0.08693 -0.0334,-0.08496 -0.16716,0.02043 -0.18541,0.145581 -0.22751,0.105664 -0.18328,-0.170894 0.0249,-0.155445 0.0146,-0.217254 -0.0365,-0.217254 -0.11666,0 -0.41777,0.358441 -0.50127,0.596909 -0.0428,0.122171 -0.10428,0.255377 -0.13658,0.295909 h 1.1e-4 c -0.0324,0.04061 -0.10557,0.09881 -0.16307,0.129543 -0.15906,0.0851 -0.17985,-0.05406 -0.0469,-0.314567 0.142,-0.278531 0.14356,-0.368836 0.006,-0.368836 -0.0633,0 -0.15643,0.08304 -0.22676,0.202239 -0.16033,0.271755 -0.26368,0.225017 -0.24207,-0.109347 0.0207,-0.320882 -0.0865,-0.351223 -0.32768,-0.0929 -0.18346,0.196373 -0.41021,0.221372 -0.71166,0.07833 -0.20333,-0.09649 -0.23721,-0.179162 -0.1216,-0.297349 0.0572,-0.05841 0.0321,-0.06512 -0.13207,-0.03491 -0.20273,0.03715 -0.20279,0.03715 -0.17599,-0.286204 0.0193,-0.232498 0.009,-0.312184 -0.0373,-0.283669 -0.0354,0.02178 -0.0641,0.08555 -0.0641,0.141662 0,0.262615 -0.43392,0.576669 -0.89457,0.647439 -0.21052,0.03235 -0.24893,0.02274 -0.27286,-0.06882 -0.0246,-0.0947 -0.0702,-0.103558 -0.4089,-0.07933 -0.24656,0.01768 -0.48919,-0.0032 -0.68749,-0.05828 -0.16859,-0.04708 -0.37798,-0.101836 -0.46541,-0.121805 -0.13266,-0.03036 -0.15593,-0.06168 -0.14119,-0.189783 0.0161,-0.139805 0.0365,-0.152159 0.23509,-0.140226 0.2772,0.01672 0.4322,-0.06655 0.4322,-0.232038 0,-0.191973 0.25064,-0.29512 0.43062,-0.177191 0.23292,0.152615 0.13311,0.367846 -0.17067,0.367846 -0.33136,0 -0.0582,0.117551 0.35327,0.152043 0.47684,0.03997 0.62958,-0.04509 0.62958,-0.35087 0,-0.197021 0.18529,-0.479069 0.31478,-0.479069 0.0442,0 0.0806,0.02595 0.0806,0.05759 0,0.06776 0.23971,0.01883 0.46605,-0.09523 0.12497,-0.06303 0.15534,-0.116861 0.15534,-0.276276 0,-0.222148 0.11756,-0.308022 0.25985,-0.189886 0.0883,0.0734 0.0863,0.194137 -0.009,0.580576 -0.0378,0.152429 -0.0331,0.157796 0.0835,0.09543 0.0679,-0.03638 0.14707,-0.128109 0.17586,-0.2039 0.029,-0.07578 0.0664,-0.137799 0.0835,-0.137799 0.017,0 0.15565,0.08588 0.30816,0.190762 0.15246,0.104884 0.36797,0.207706 0.47882,0.228509 0.23554,0.0442 0.26006,0.126218 0.0604,0.202125 -0.0777,0.02954 -0.14122,0.0825 -0.14122,0.117731 0,0.06883 0.17345,0.05207 0.63552,-0.0611 0.24103,-0.05912 0.26833,-0.08194 0.26833,-0.224851 0,-0.142525 -0.0185,-0.158173 -0.17762,-0.150718 -0.22281,0.01044 -0.26202,-0.08745 -0.0967,-0.24142 0.10676,-0.09941 0.17315,-0.113171 0.41265,-0.08572 0.43927,0.05034 1.04523,0.189788 1.22207,0.28124 0.0876,0.04535 0.18504,0.08241 0.21646,0.08241 0.0827,0 0.18394,-0.422614 0.14167,-0.59106 -0.0452,-0.180554 -0.11704,-0.181007 -0.28288,-0.0019 -0.19812,0.21377 -0.33215,0.182475 -0.47402,-0.110559 -0.26505,-0.547558 -0.74786,-0.757843 -1.04882,-0.456887 -0.10154,0.101516 -0.13868,0.199871 -0.13868,0.367191 0,0.330258 -0.15195,0.466944 -0.4666,0.419597 -0.33711,-0.05073 -0.35705,-0.09414 -0.13351,-0.290401 0.20139,-0.176825 0.21707,-0.280446 0.0271,-0.178733 -0.0584,0.03132 -0.14279,0.03652 -0.18726,0.0116 -0.0681,-0.03811 -0.0575,-0.11255 0.0655,-0.468474 0.19755,-0.571212 0.26279,-0.656162 0.58632,-0.763627 0.28316,-0.09404 0.36906,-0.196168 0.16495,-0.196168 -0.16056,0 -0.141,-0.102021 0.0814,-0.424337 0.10702,-0.155004 0.235,-0.352133 0.28444,-0.43814 0.0832,-0.144736 0.0827,-0.159134 -0.007,-0.193748 -0.0555,-0.0212 -0.10702,-0.0086 -0.11965,0.02927 -0.0271,0.08107 -0.16241,0.08792 -0.2102,0.01057 -0.0331,-0.05379 0.14537,-0.79587 0.25511,-1.059644 0.0566,-0.136339 -0.007,-0.172784 -0.0997,-0.05642 -0.0565,0.07137 -0.20126,0.503824 -0.2651,0.792309 -0.0191,0.08624 -0.0833,0.205411 -0.14267,0.264804 -0.093,0.09292 -0.13805,0.09966 -0.32342,0.04874 -0.11846,-0.0326 -0.28508,-0.09496 -0.37024,-0.138804 -0.14077,-0.07243 -0.16371,-0.06935 -0.25256,0.03439 -0.12447,0.1453 -0.29869,0.150109 -0.29869,0.0081 0,-0.05835 0.0382,-0.137742 0.0846,-0.176422 0.12773,-0.106017 0.10196,-0.175954 -0.0509,-0.137587 -0.0966,0.02434 -0.1523,0.0045 -0.19312,-0.06829 -0.034,-0.06085 -0.12902,-0.105907 -0.23432,-0.111211 -0.31723,-0.01595 -0.29635,-0.125219 0.0586,-0.306278 0.22237,-0.113453 0.29249,-0.223986 0.1421,-0.223986 -0.044,0 -0.0915,-0.03176 -0.10558,-0.07063 -0.017,-0.04753 -0.079,-0.02069 -0.18834,0.08176 -0.23123,0.216415 -0.53428,0.3278 -0.89193,0.3278 -0.40213,0 -0.43999,-0.07423 -0.0844,-0.165386 0.15524,-0.03984 0.45264,-0.155509 0.66091,-0.257074 0.22925,-0.111808 0.39292,-0.162363 0.41472,-0.128096 0.0476,0.07485 0.16166,0.0013 0.16166,-0.104153 0,-0.04579 -0.0381,-0.09787 -0.0845,-0.115747 -0.11719,-0.04496 -0.10598,-0.165705 0.0324,-0.352951 0.13175,-0.17819 0.2171,-0.627794 0.11925,-0.627794 -0.0335,0 -0.13716,0.158884 -0.23006,0.353067 -0.23645,0.494178 -0.54368,0.781144 -0.8766,0.818673 -0.21995,0.02478 -0.2595,0.01428 -0.2595,-0.06882 0,-0.06366 0.0295,-0.08679 0.0839,-0.06588 0.0463,0.01774 0.0804,0.01415 0.0758,-0.0081 -0.0235,-0.113497 0.10638,-0.256471 0.3269,-0.360125 0.20473,-0.09625 0.27497,-0.174449 0.41585,-0.462966 0.21514,-0.440715 0.24088,-0.629473 0.0859,-0.629896 -0.075,-1.98e-4 -0.11276,-0.03875 -0.11495,-0.114528 -0.004,-0.15476 -0.14081,-0.478294 -0.20401,-0.478294 -0.0279,0 -0.0662,0.07573 -0.0847,0.168256 -0.033,0.164725 -0.16466,0.327306 -0.2202,0.271748 -0.0549,-0.05496 0.0982,-0.610385 0.20289,-0.735918 0.10637,-0.12775 0.10637,-0.127788 0.10845,0.03087 0.003,0.194087 0.0903,0.155202 0.13108,-0.0579 0.0343,-0.178786 -0.1035,-0.48573 -0.20312,-0.453032 -0.0369,0.0121 -0.0753,0.0836 -0.0849,0.158885 -0.0212,0.165487 -0.24277,0.344145 -0.3469,0.279806 -0.0577,-0.03567 -0.0466,-0.09342 0.0528,-0.270096 0.10154,-0.180579 0.11405,-0.247595 0.0637,-0.341589 -0.0344,-0.06429 -0.0627,-0.182955 -0.0627,-0.263704 0,-0.168326 -0.25761,-0.708019 -0.33794,-0.708019 -0.0294,0 -0.0807,0.05079 -0.11406,0.112986 -0.0845,0.157821 -0.22568,0.140983 -0.45399,-0.05419 -0.10755,-0.09196 -0.23668,-0.168199 -0.28689,-0.16948 -0.1238,-0.0032 -0.39787,-0.224633 -0.35793,-0.289297 0.0367,-0.05957 0.30995,-0.06929 0.44884,-0.01601 0.0515,0.01979 0.11758,0.09861 0.14664,0.175211 0.0358,0.09411 0.0817,0.128223 0.14157,0.105273 0.0487,-0.0187 0.1246,-0.03395 0.1687,-0.03395 0.13816,0 0.0838,-0.131491 -0.17292,-0.41783 -0.18848,-0.210336 -0.29955,-0.285045 -0.46351,-0.31169 -0.29377,-0.04771 -0.27708,-0.175845 0.0386,-0.296799 0.35731,-0.136908 0.79193,-0.130087 1.10531,0.01723 0.40064,0.188335 0.75607,0.771793 0.97854,1.606465 0.0388,0.145069 0.11144,0.256972 0.19705,0.302756 0.15535,0.08314 0.26118,0.282586 0.26118,0.492192 0,0.145882 0.0902,0.383888 0.29073,0.766824 0.16466,0.312709 0.21092,0.732364 0.16252,1.446139 -0.0422,0.623138 -0.0482,0.64448 -0.23115,0.833244 -0.10336,0.106548 -0.15973,0.193747 -0.1255,0.193747 0.0359,0 0.0487,0.0515 0.0303,0.121908 -0.0262,0.100031 -0.013,0.115849 0.0759,0.08838 0.28975,-0.08998 0.33978,-0.09446 0.4185,-0.03728 0.0638,0.04637 0.0672,0.06865 0.0141,0.09025 -0.0389,0.01576 -0.0702,0.05828 -0.0702,0.09455 0,0.07571 0.44402,0.331393 0.5071,0.292391 0.0231,-0.01415 0.0739,-0.140731 0.11327,-0.281137 0.0563,-0.201287 0.0567,-0.272928 0.003,-0.338496 -0.0443,-0.05355 -0.0558,-0.161728 -0.0318,-0.303531 0.0324,-0.191716 0.0222,-0.224357 -0.0795,-0.250893 -0.13951,-0.03652 -0.14898,-0.184557 -0.0357,-0.557633 0.0833,-0.274515 0.0807,-0.2984 -0.12161,-1.149905 -0.0517,-0.217478 -0.0896,-0.451405 -0.0841,-0.519766 0.0133,-0.165527 -0.1002,-0.229885 -0.1398,-0.07914 -0.017,0.06528 -0.0543,0.118726 -0.0827,0.118726 -0.0967,0 -0.1177,-0.170856 -0.0433,-0.350321 0.0566,-0.136806 0.0581,-0.184209 0.006,-0.201465 -0.0469,-0.01557 -0.0678,-0.201927 -0.0678,-0.600765 0,-0.609655 -0.10206,-1.093989 -0.25818,-1.2235 -0.0752,-0.06232 -0.10898,-0.04842 -0.22375,0.09215 -0.13526,0.165514 -0.13524,0.165538 -0.11262,-0.126987 0.0194,-0.251746 -0.009,-0.356021 -0.20059,-0.747737 -0.18756,-0.382625 -0.24324,-0.453088 -0.34944,-0.441879 -0.10062,0.01069 -0.13007,-0.01908 -0.14462,-0.146415 -0.0141,-0.123125 -0.0399,-0.151345 -0.11302,-0.122919 -0.17993,0.07007 -0.20421,0.05598 -0.23413,-0.136473 -0.0386,-0.247647 -0.12824,-0.274861 -0.27815,-0.0843 -0.13321,0.169344 -0.15147,0.30729 -0.0538,0.405038 0.0496,0.04952 0.0479,0.08648 -0.006,0.152479 -0.0914,0.110404 -0.30833,0.118135 -0.26665,0.0095 0.0165,-0.04272 9e-5,-0.07653 -0.0363,-0.07503 -0.2647,0.01108 -0.65895,-0.213501 -0.72555,-0.413198 -0.0215,-0.06476 -0.0555,-0.06563 -0.20048,-0.0058 -0.39975,0.165583 -0.61736,-0.06744 -0.31477,-0.337068 0.45962,-0.409528 0.82187,-0.671381 0.88167,-0.637511 0.0368,0.02094 0.1065,0.07148 0.15457,0.112544 0.0739,0.06308 0.11926,0.05207 0.29228,-0.07106 0.21661,-0.154106 0.33321,-0.144224 0.28909,0.02446 -0.0221,0.08413 0.009,0.101609 0.17984,0.101609 0.1789,0 0.24645,0.04336 0.50751,0.326146 0.24644,0.266894 0.32922,0.322932 0.45536,0.307944 0.0847,-0.0101 0.1803,-0.06015 0.21229,-0.111212 0.0458,-0.07318 0.0231,-0.123266 -0.10728,-0.235783 -0.16545,-0.142847 -0.16542,-0.142847 -0.006,-0.203676 0.1999,-0.07646 0.82502,-0.07825 1.35533,-0.0038 0.22345,0.03132 0.58419,0.08178 0.8017,0.112096 0.21747,0.0303 0.70047,0.09821 1.07332,0.150717 0.99761,0.140528 2.64791,0.136692 3.1336,-0.0073 0.49708,-0.147356 0.82492,-0.339379 1.15641,-0.677447 0.15348,-0.156546 0.30152,-0.277648 0.32902,-0.269103 0.0273,0.0085 0.0354,-0.0079 0.0178,-0.03631 -0.0175,-0.02844 0.0194,-0.167544 0.0821,-0.309154 0.11964,-0.270424 0.35734,-1.186331 0.42025,-1.619039 0.0525,-0.360869 0.20955,-0.790869 0.28896,-0.790869 z m -9.89808,1.531103 h 1.2e-4 c 0.003,2.12e-4 0.004,0.0013 0.005,0.0026 0.0563,0.0547 -0.29017,0.710163 -0.56337,1.065492 -0.55685,0.724332 -1.33334,1.331085 -2.55763,1.998693 -0.58236,0.317577 -0.78074,0.373039 -0.90176,0.252009 -0.0488,-0.04888 -0.11417,-0.02165 -0.26435,0.110218 -0.27175,0.23859 -0.84556,0.400529 -1.38812,0.391799 -0.29967,-0.0051 -0.47652,0.02114 -0.60442,0.0887 -0.35424,0.187158 -0.54228,0.09602 -0.37744,-0.183044 0.0812,-0.137575 0.0856,-0.181085 0.0245,-0.254429 -0.0924,-0.111487 -0.22905,-0.114818 -0.22905,-0.0058 0,0.147784 -0.21332,0.210016 -0.58366,0.170356 -0.31029,-0.03325 -0.36197,-0.02415 -0.45679,0.08066 -0.0589,0.06496 -0.12771,0.11816 -0.15312,0.11816 -0.0736,0 -0.2133,-0.308622 -0.27982,-0.61864 -0.0607,-0.283675 -0.16484,-0.390582 -0.16484,-0.169472 0,0.348192 -0.37074,0.633129 -0.53833,0.41364 -0.0975,-0.127609 -0.0553,-0.866082 0.063,-1.100028 0.0952,-0.188689 0.41848,-0.472369 0.65673,-0.576382 0.44622,-0.194823 0.70716,-0.236949 1.45692,-0.235457 0.70082,0.0013 0.78832,0.01345 1.07939,0.148514 0.33009,0.153159 0.65159,0.493148 0.59814,0.632433 -0.0388,0.100949 -0.6517,0.171663 -0.84639,0.09764 -0.0804,-0.03062 -0.175,-0.109245 -0.21006,-0.174769 -0.0763,-0.142564 -0.16958,-0.124157 -0.23248,0.04592 -0.0368,0.09963 -0.016,0.143667 0.10533,0.22309 0.12551,0.08213 0.27151,0.09777 0.85961,0.0918 1.09469,-0.01121 1.62883,-0.181578 3.44824,-1.100029 1.12504,-0.567919 1.3754,-0.746153 1.81697,-1.29366 0.10573,-0.131074 0.2084,-0.225344 0.23788,-0.220008 z m -8.98389,1.469755 c 0.0677,-0.0013 0.12784,-1.08e-4 0.17785,0.0026 0.48571,0.0267 0.48267,0.143064 -0.0104,0.413422 -0.45715,0.25053 -0.94807,0.655818 -1.06263,0.877376 -0.0924,0.178637 -0.57673,0.598503 -0.62956,0.545706 -0.0188,-0.01876 0.0454,-0.158115 0.14268,-0.309597 0.0972,-0.151486 0.17673,-0.293692 0.17673,-0.316103 0,-0.09202 -0.1343,0.05348 -0.32614,0.353394 -0.11209,0.175224 -0.31624,0.426463 -0.4538,0.558293 -0.22584,0.216422 -0.27036,0.236456 -0.4581,0.206436 -0.15193,-0.02428 -0.22799,-0.009 -0.28268,0.05694 -0.0782,0.0942 -0.2305,0.123433 -0.2305,0.04426 0,-0.02518 0.0508,-0.151077 0.113,-0.27969 0.0622,-0.128615 0.11301,-0.261072 0.11301,-0.294258 0,-0.03317 0.0604,-0.155815 0.13402,-0.272529 0.15722,-0.249011 0.24404,-0.57638 0.15295,-0.57638 -0.0334,0 -0.061,0.04105 -0.061,0.09126 0,0.105505 -0.38176,0.473657 -0.4912,0.473657 -0.0433,0 -0.0736,0.06643 -0.0736,0.161863 0,0.216773 -0.20364,0.470747 -0.3596,0.448508 -0.0941,-0.01338 -0.12056,-0.05656 -0.12056,-0.195955 0,-0.09829 -0.0184,-0.197137 -0.0407,-0.219677 -0.056,-0.0561 -0.15634,0.224454 -0.15934,0.444424 -0.005,0.316879 -0.18637,0.708851 -0.53434,1.149457 -0.55052,0.697039 -0.57214,0.7202 -0.61302,0.654055 -0.046,-0.07431 0.36727,-1.159801 0.69036,-1.813549 0.43499,-0.880147 0.78858,-1.412801 1.01451,-1.528016 0.26962,-0.137486 1.01464,-0.386828 1.4478,-0.484474 0.42189,-0.09511 1.27081,-0.185152 1.74471,-0.191422 z m 7.58248,1.638351 c 0.0912,4.1e-4 0.14367,0.04638 0.1849,0.136806 0.1462,0.320901 0.0747,0.378873 -0.58411,0.474546 -0.24859,0.03606 -0.50969,0.07356 -0.58033,0.0832 -0.34702,0.04739 -0.0328,-0.276898 0.52384,-0.540851 0.21769,-0.103218 0.35862,-0.154126 0.4557,-0.153697 z m -8.71064,0.133501 h 1e-4 c 0.10755,0.0058 -0.005,0.249799 -0.27374,0.566452 -0.17008,0.200524 -0.36949,0.485794 -0.44308,0.633867 -0.19755,0.39748 -0.44308,1.188642 -0.52079,1.678293 -0.0411,0.258791 -0.2544,0.66014 -0.33684,0.633744 -0.0311,-0.0099 -0.0693,-0.193952 -0.0848,-0.409003 -0.0277,-0.381333 -0.1207,-0.656439 -0.18615,-0.550562 -0.0179,0.02908 -0.009,0.153049 0.0191,0.27561 0.0758,0.326833 0.0658,0.59313 -0.0375,0.994986 -0.0724,0.281983 -0.0838,0.494229 -0.0536,1.003272 0.0211,0.355092 0.0539,0.670889 0.0729,0.70171 0.0716,0.11613 0.11431,-0.175782 0.0682,-0.467808 -0.0514,-0.325307 -0.0347,-0.399293 0.0904,-0.399293 0.1117,0 0.1769,0.148437 0.2234,0.50841 0.022,0.170887 0.10134,0.500679 0.17599,0.732837 0.15756,0.489471 0.17497,0.735932 0.0521,0.735932 -0.10021,0 -0.34303,-0.458796 -0.39806,-0.752252 -0.0785,-0.41829 -0.12369,-0.243315 -0.16212,0.626916 -0.0215,0.488377 -0.0617,0.987928 -0.0896,1.110175 -0.0334,0.147912 -0.0291,0.261308 0.013,0.338951 0.0673,0.12504 0.13422,0.39787 0.209,0.851108 0.0257,0.155342 0.077,0.384144 0.11431,0.508415 0.0373,0.124285 0.0594,0.312922 0.0491,0.419271 h -1.2e-4 c -0.0385,0.396917 -0.13276,0.282926 -0.5095,-0.616989 -0.0327,-0.07769 -0.0787,-0.180669 -0.10238,-0.228828 -0.0927,-0.187381 -0.16886,-0.732562 -0.19286,-1.381154 -0.0137,-0.372847 -0.0675,-0.944814 -0.11938,-1.27105 -0.0519,-0.326237 -0.12616,-0.809238 -0.16499,-1.073332 -0.0491,-0.333769 -0.0844,-0.448343 -0.1156,-0.375678 -0.0432,0.100135 0.0798,1.246154 0.20401,1.900939 0.0589,0.309654 0.0655,0.576387 0.0332,1.328524 -0.0168,0.389762 -0.0575,0.535676 -0.14963,0.535676 -0.0256,0 -0.0597,-0.04452 -0.076,-0.09886 -0.0318,-0.107061 -0.31593,-0.90844 -0.62593,-1.765344 -0.10675,-0.295158 -0.26218,-0.727322 -0.34534,-0.960346 -0.0831,-0.23303 -0.1742,-0.447427 -0.20235,-0.476416 -0.13463,-0.138824 -0.0897,0.07751 0.17588,0.85023 0.54169,1.575208 0.69232,2.056743 0.65516,2.093911 -0.0708,0.07076 -0.31871,-0.228257 -0.42446,-0.511727 -0.0585,-0.156604 -0.13489,-0.294275 -0.16991,-0.305958 -0.076,-0.02537 -0.0894,0.417495 -0.0138,0.464182 0.0273,0.01691 0.0619,0.09464 0.077,0.172778 0.0211,0.110596 0.005,0.142109 -0.0781,0.142109 -0.0577,0 -0.10533,-0.03177 -0.10533,-0.07061 -1.3e-4,-0.03888 -0.0767,-0.266676 -0.1698,-0.506315 -0.18694,-0.480541 -0.33787,-1.528611 -0.33787,-2.332021 0,-0.494184 0.12407,-1.64364 0.22455,-2.088729 0.0699,-0.310372 0.24119,-0.623171 0.36739,-0.671606 0.10636,-0.04079 0.17313,0.06805 0.0918,0.149392 -0.0346,0.03453 -0.0628,0.125195 -0.0628,0.201479 0,0.134885 0.005,0.135973 0.11261,0.03696 0.0619,-0.05604 0.17542,-0.209306 0.25244,-0.340712 0.0812,-0.138542 0.25881,-0.315104 0.42267,-0.420263 0.28012,-0.17974 0.6246,-0.52318 0.6246,-0.622606 0,-0.09204 0.36017,-0.399517 0.63366,-0.540968 0.4015,-0.207665 0.43968,-0.192376 0.43968,0.176204 0,0.329029 0.0742,0.374737 0.13272,0.08187 0.0702,-0.350294 0.26859,-0.724056 0.4025,-0.75767 0.0717,-0.018 0.20441,-0.117316 0.29527,-0.22077 0.0909,-0.103468 0.20806,-0.204618 0.26048,-0.224755 0.0245,-0.0093 0.0445,-0.01339 0.0597,-0.01262 z m 13.29763,0.300873 c 0.0303,-1.48e-4 0.0643,0.0013 0.10196,0.0032 0.27943,0.01677 0.47619,0.128423 0.47619,0.270206 0,0.05515 -0.0924,0.07602 -0.33696,0.07602 -0.28216,0 -0.34702,-0.01896 -0.39905,-0.116183 -0.0906,-0.16919 -0.0545,-0.232177 0.15786,-0.233239 z m -13.18101,0.301435 c 0.017,-0.0013 0.0339,0.0019 0.0507,0.0081 0.0804,0.03087 0.0629,0.263364 -0.0716,0.938601 -0.0334,0.168153 -0.0443,0.320682 -0.0245,0.338951 0.0199,0.0182 0.0476,0.0013 0.0614,-0.0374 0.0493,-0.138075 0.12981,-0.06777 0.12772,0.112978 -0.004,0.452315 -0.40286,1.691699 -0.48174,1.492814 -0.0224,-0.05668 -0.009,-0.200203 0.0303,-0.318857 0.0672,-0.2034 0.0474,-0.340719 -0.0488,-0.340719 -0.0237,0 -0.0869,0.139817 -0.1408,0.310704 -0.0565,0.179414 -0.1309,0.310698 -0.17598,0.310698 -0.11743,0 -0.16015,0.203298 -0.15269,0.727651 0.004,0.260386 -0.0188,0.520944 -0.0499,0.579037 -0.031,0.05809 -0.0907,0.105582 -0.13272,0.105582 -0.0986,0 -0.17444,-0.658686 -0.0986,-0.851332 0.0297,-0.07549 0.0845,-0.251649 0.12224,-0.391459 0.0375,-0.139816 0.10664,-0.364474 0.15361,-0.499154 0.0629,-0.180112 0.0688,-0.261501 0.0224,-0.307835 -0.0464,-0.04637 -0.063,-0.03684 -0.063,0.03593 0,0.0859 -0.13864,0.410579 -0.20798,0.487017 -0.0541,0.05976 -0.1281,-0.154113 -0.1281,-0.365537 0.003,-0.39638 0.14907,-0.933951 0.38692,-1.413923 0.26014,-0.525006 0.43153,-0.675128 0.36785,-0.322291 -0.0209,0.116042 -0.057,0.249088 -0.0801,0.295697 -0.0684,0.139304 -0.12355,0.621402 -0.0705,0.621402 0.0413,0 0.25905,-0.708422 0.38552,-1.254609 0.0355,-0.153145 0.12655,-0.257817 0.21834,-0.262153 z m 8.19746,0.05265 c 0.11522,-2.11e-4 0.20028,0.01441 0.221,0.04798 0.0879,0.142167 -0.0851,0.23041 -0.38563,0.196624 -0.21458,-0.02414 -0.31919,-0.0099 -0.40284,0.05496 -0.1117,0.08666 -0.1117,0.08777 0.0141,0.08947 0.1785,0.0026 0.15851,0.134821 -0.0466,0.307386 h -1.3e-4 c -0.0956,0.08042 -0.19293,0.146305 -0.21647,0.146305 -0.15291,0 -0.1562,-0.250945 -0.005,-0.380321 0.14606,-0.12502 0.1426,-0.172272 -0.0141,-0.19606 -0.12718,-0.01928 -0.12718,-0.01922 0.004,-0.09256 0.1798,-0.100815 0.57872,-0.173354 0.83213,-0.173776 z m -7.18768,0.634091 c 0.11548,-0.0019 0.26491,0.140508 0.26491,0.279467 0,0.196731 -0.17305,0.486594 -0.30143,0.504887 -0.0892,0.01274 -0.12707,0.06334 -0.14033,0.186906 -0.009,0.09321 -0.10807,0.487229 -0.21807,0.875607 -0.25787,0.910963 -0.32173,1.191096 -0.44716,1.963722 -0.10206,0.628672 -0.1612,0.730673 -0.27627,0.475872 -0.0307,-0.06791 -0.0772,-0.123464 -0.10364,-0.123464 -0.0528,0 -0.0191,0.673552 0.0463,0.91797 0.0328,0.122914 0.0222,0.155355 -0.0507,0.155355 -0.25028,0 -0.43425,-0.732396 -0.29727,-1.183442 0.081,-0.26654 0.20676,-0.374312 0.20676,-0.177081 0,0.06693 0.0365,0.117732 0.0846,0.117732 0.0495,0 0.0847,-0.05137 0.0847,-0.123457 0,-0.111379 0.0365,-0.286405 0.2349,-1.119341 0.0332,-0.13981 0.11874,-0.432157 0.18989,-0.649642 0.0711,-0.217491 0.14757,-0.533158 0.16968,-0.70151 0.022,-0.168338 0.0879,-0.384414 0.14631,-0.48017 0.0585,-0.09575 0.10806,-0.237654 0.11079,-0.315335 0.006,-0.210036 0.13202,-0.521086 0.23645,-0.586968 0.0179,-0.01133 0.038,-0.01672 0.0595,-0.0171 z m 3.07345,0.04785 c 0.1679,-5e-4 0.0504,0.273285 -0.35152,0.819011 -0.20249,0.274894 -0.41675,0.557006 -0.47622,0.626917 -0.0594,0.06994 -0.16717,0.125623 -0.23939,0.124125 -0.19163,-0.0045 -0.54101,-0.161383 -0.57905,-0.260496 -0.0348,-0.09049 0.16365,-0.379533 0.3064,-0.446414 0.0861,-0.04029 0.51494,-0.135289 0.68793,-0.152372 0.0519,-0.0051 0.0831,-0.02818 0.0688,-0.05118 -0.0419,-0.06777 0.36941,-0.603045 0.49366,-0.642475 0.0357,-0.01133 0.0655,-0.01704 0.0893,-0.0171 z m 8.82604,0.08827 h 1.3e-4 c 0.0433,-0.0026 0.22853,0.150603 0.43014,0.356597 0.21523,0.219854 0.50042,0.472457 0.63377,0.561378 0.26397,0.175987 0.2375,0.254129 -0.0667,0.197054 -0.15231,-0.02863 -0.21856,-0.01121 -0.31172,0.08197 -0.13758,0.137593 -0.35681,0.154464 -0.45587,0.0351 -0.0912,-0.109866 -0.2952,-1.170811 -0.23646,-1.229558 0.003,-0.0013 0.005,-0.0026 0.006,-0.0026 z m -7.18404,0.109777 c 0.0238,-1.22e-4 0.0455,0.0051 0.0636,0.01589 0.11378,0.07031 -0.0167,0.262608 -0.22795,0.336292 -0.22203,0.07742 -0.21905,0.07753 -0.21692,-0.0081 0.005,-0.151558 0.23527,-0.343166 0.38132,-0.344018 z m 2.4186,0.48503 c 0,0.03709 0.0871,0.0051 0.14985,0.01473 0.39548,0.06361 0.85802,0.379714 0.73525,0.502455 -0.0907,0.09078 -0.43934,-0.04318 -0.79318,-0.304735 -0.19313,-0.142802 -0.092,-0.344998 -0.092,-0.212508 z m -7.07514,0.111769 c 0.0425,-0.0038 0.093,0.09185 0.093,0.216588 0,0.110026 0.0287,0.166161 0.0846,0.166161 0.0585,0 0.0847,0.0588 0.0847,0.190775 0,0.133539 0.0381,0.217856 0.12705,0.280902 0.12707,0.09007 0.12707,0.09014 -0.004,0.202023 -0.0838,0.07197 -0.15019,0.218547 -0.18645,0.411103 -0.031,0.164572 -0.0705,0.369125 -0.0881,0.454575 -0.0241,0.117821 -0.0104,0.155349 0.0583,0.155349 0.14409,0 0.17907,0.271422 0.0648,0.502793 -0.28605,0.579173 -0.36856,0.71334 -0.44938,0.730078 -0.16337,0.03381 -0.1595,-0.161595 0.013,-0.613902 0.0938,-0.247223 0.14542,-0.44949 0.11443,-0.44949 -0.031,0 -0.1251,0.04068 -0.20919,0.09035 -0.13972,0.08254 -0.15804,0.134871 -0.21282,0.606612 -0.0521,0.448881 -0.0487,0.524781 0.0283,0.580915 0.0764,0.05592 0.0796,0.112082 0.0224,0.419815 h -1.1e-4 c -0.084,0.45095 -0.15027,0.521861 -0.25477,0.271748 -0.10402,-0.248991 -0.0799,-1.500089 0.0377,-1.956651 0.0459,-0.177926 0.11418,-0.450609 0.15162,-0.605959 0.0375,-0.155348 0.1564,-0.562077 0.26423,-0.903853 0.1078,-0.341769 0.20585,-0.65485 0.21779,-0.695649 0.0104,-0.03612 0.0258,-0.05278 0.0425,-0.05432 z m 5.88861,0.156791 c 0.11847,0 0.76752,0.258156 1.30734,0.520105 0.13162,0.06386 0.35371,0.238333 0.49343,0.387712 0.25684,0.274574 0.53205,0.75543 0.46869,0.818788 -0.0191,0.01896 -0.13173,0.05642 -0.25067,0.0833 -0.34802,0.07851 -0.4706,-0.03753 -0.4706,-0.445633 0,-0.271794 -0.0228,-0.349198 -0.1338,-0.453474 -0.11523,-0.10822 -0.17266,-0.120665 -0.4119,-0.08892 -0.29291,0.03881 -0.61964,-0.05656 -0.82242,-0.23998 -0.11546,-0.104506 -0.17107,-0.0719 -0.18922,0.110558 -0.006,0.06972 -0.031,0.220585 -0.0536,0.335409 -0.0227,0.11483 -0.0259,0.269353 -0.007,0.343363 0.0379,0.151225 0.44146,0.396328 0.80134,0.486793 0.12304,0.03094 0.32545,0.08191 0.44971,0.113319 0.12642,0.03196 0.45601,0.04208 0.74852,0.02293 0.52254,-0.03421 0.52254,-0.03421 0.52254,0.104268 0,0.180893 -0.0987,0.274074 -0.29041,0.274074 -0.0851,0 -0.16929,0.02351 -0.18701,0.0522 -0.0483,0.07809 0.27885,0.289106 0.50511,0.325814 0.1091,0.01768 0.19826,0.05374 0.19826,0.0801 0,0.02633 -0.10807,0.103333 -0.2401,0.171016 -0.25076,0.12853 -0.20527,0.216172 0.0593,0.114414 0.31077,-0.119474 0.51968,-0.137479 0.51968,-0.04477 0,0.04753 -0.0825,0.147996 -0.18358,0.223313 -0.21134,0.157616 -0.74261,0.252213 -0.80941,0.144095 -0.0231,-0.03728 0.004,-0.09966 0.0624,-0.14211 0.14147,-0.10346 0.0577,-0.16885 -0.10468,-0.08186 -0.0723,0.03869 -0.21758,0.06194 -0.32296,0.05188 -0.19328,-0.01858 -0.19967,-0.02588 -0.39432,-0.451258 -0.0495,-0.108143 -0.13586,-0.167307 -0.30751,-0.210522 -0.1555,-0.03913 -0.31549,-0.13974 -0.4591,-0.288632 -0.12134,-0.1257 -0.31256,-0.256499 -0.42511,-0.290619 -0.1817,-0.05508 -0.22766,-0.111172 -0.40957,-0.499807 -0.11262,-0.240773 -0.20498,-0.491873 -0.20498,-0.558069 0,-0.133827 -0.0569,-0.153869 -0.15581,-0.05496 -0.0495,0.04952 -0.0865,0.04791 -0.15248,-0.0068 -0.1588,-0.131791 -0.10715,0.35203 0.0824,0.769686 0.0933,0.205577 0.16948,0.395694 0.16948,0.422474 0,0.07295 -0.17912,0.05496 -0.33896,-0.03395 -0.12706,-0.07077 -0.15397,-0.06669 -0.26942,0.04119 -0.1216,0.113518 -0.13343,0.114742 -0.22599,0.02229 -0.0769,-0.0766 -0.0977,-0.196976 -0.0977,-0.559606 0,-0.435263 0.009,-0.466091 0.14012,-0.532365 0.0769,-0.03869 0.1682,-0.153991 0.20248,-0.256298 0.0343,-0.102321 0.11665,-0.213451 0.18303,-0.24693 0.0665,-0.03343 0.17225,-0.126341 0.23525,-0.206436 0.11587,-0.147304 0.53754,-0.325813 0.76967,-0.325813 z m -1.53871,0.165052 c 0.0378,-4.16e-4 0.0777,0.0081 0.12109,0.02486 0.21273,0.08164 0.0211,0.657488 -0.21892,0.657488 -0.11105,0 -0.22621,0.149425 -0.15093,0.195951 0.0332,0.02057 0.0593,0.233273 0.0593,0.485242 0,0.348527 -0.0177,0.448632 -0.0795,0.448632 -0.12173,0 -0.37151,-0.328614 -0.37877,-0.49861 -0.0118,-0.282958 0.013,-0.376985 0.21844,-0.816463 0.16477,-0.352439 0.28109,-0.495139 0.42954,-0.49706 z m -3.73823,1.053585 c 0.0412,-2.18e-4 0.0838,0.03004 0.1233,0.09267 0.0473,0.07499 0.0352,0.131548 -0.0538,0.250682 -0.21474,0.287403 -0.34247,0.203157 -0.22818,-0.150385 0.0409,-0.126589 0.0984,-0.19255 0.15864,-0.192972 z m -0.18425,1.210465 c 0.0487,0 0.1377,0.891697 0.13086,1.310217 -0.004,0.257485 0,0.265587 0.17478,0.282446 0.16989,0.01645 0.17909,0.02946 0.17909,0.25487 0,0.143911 0.0364,0.273971 0.0921,0.33001 0.0753,0.07555 0.0811,0.127799 0.033,0.285 -0.0382,0.123971 -0.0946,0.19253 -0.15876,0.19253 -0.1164,0 -0.18709,-0.176779 -0.13561,-0.338944 0.0279,-0.0885 0.0104,-0.112979 -0.0825,-0.112979 -0.12876,0 -0.15149,-0.03959 -0.19454,-0.338951 -0.0157,-0.108739 -0.10909,-0.358999 -0.20751,-0.556191 -0.15955,-0.319223 -0.17517,-0.392875 -0.14247,-0.671163 0.0337,-0.286583 0.20526,-0.636845 0.31193,-0.636845 z m 3.9492,0.130195 c 0.0693,-0.0013 0.1688,0.0613 0.28507,0.187241 0.27878,0.301929 0.45901,0.535266 0.45901,0.594032 0,0.02684 -0.0607,0.04888 -0.13505,0.04888 -0.19318,0 -0.71231,-0.478601 -0.71231,-0.656707 0,-0.114478 0.0384,-0.172162 0.10337,-0.173444 z m -0.24286,0.607056 c 0.0716,-6.41e-4 0.17728,0.04727 0.27627,0.139022 0.20744,0.192249 0.18977,0.455869 -0.0297,0.441662 -0.13439,-0.0086 -0.14676,0.0082 -0.1412,0.195848 0.004,0.145729 -0.0202,0.210773 -0.0839,0.223865 -0.10637,0.02178 -0.1651,-0.04432 -0.33024,-0.372045 -0.16442,-0.326187 -0.14046,-0.495498 0.0671,-0.473772 0.10911,0.01146 0.15535,-0.0095 0.15535,-0.07061 0,-0.05592 0.0343,-0.08309 0.0865,-0.08396 z m -4.32971,0.731511 c 0.0275,0 0.14183,0.101805 0.25419,0.226184 0.15269,0.168997 0.20425,0.276046 0.20425,0.423676 0,0.135832 0.0257,0.197507 0.0827,0.197507 0.0953,0 0.19973,0.169639 0.19973,0.324495 0,0.05828 -0.0792,0.187092 -0.17611,0.286198 -0.0969,0.0991 -0.20193,0.180182 -0.23334,0.180182 -0.0589,0 -0.0312,-0.400517 0.0394,-0.571648 0.026,-0.0634 0.003,-0.100763 -0.0791,-0.121908 -0.0677,-0.01768 -0.1632,-0.133264 -0.22781,-0.275726 -0.11378,-0.250708 -0.15373,-0.66896 -0.0639,-0.66896 z m 7.43978,0.136929 c 0,-0.04593 0.0913,0.0082 0.12942,0.02869 0.12277,0.06572 0.14661,0.151602 0.0858,0.309929 -0.0726,0.188906 -0.47421,0.04477 -0.47421,-0.170138 0,-0.09452 0.25895,-0.04151 0.25895,-0.168473 z m -7.77772,0.266451 c 0.0283,-1.09e-4 0.0644,0.03927 0.11262,0.116624 0.0866,0.138695 0.23398,0.783675 0.19418,0.849902 -0.12785,0.212746 -0.45015,-0.446543 -0.38663,-0.790866 0.022,-0.117893 0.0454,-0.175532 0.0798,-0.17566 z m 9.07238,0.110673 c 0.12042,-0.0019 0.15423,0.09299 0.076,0.257081 -0.0521,0.10906 -0.1268,0.166724 -0.23205,0.178843 -0.29888,0.03446 -0.27018,-0.301443 0.035,-0.41022 0.047,-0.01672 0.0873,-0.0251 0.12109,-0.02569 z m -10.52339,0.01832 c 0.0812,-0.0019 0.22068,0.193632 0.3024,0.439683 0.12472,0.375275 0.0422,0.455133 -0.19328,0.187017 -0.16978,-0.193383 -0.24226,-0.510896 -0.14002,-0.613127 0.009,-0.009 0.0194,-0.0132 0.0309,-0.01358 z m 7.2561,0.03907 c 0.26212,-0.0013 0.40796,0.26734 0.20258,0.42324 -0.13332,0.101197 -0.14487,0.09889 -0.29186,-0.05759 -0.15297,-0.162823 -0.13593,-0.33708 0.0354,-0.361561 0.0186,-0.0019 0.0365,-0.0038 0.054,-0.0038 z m -1.78146,0.06782 c 0.13819,9.6e-5 0.22051,0.276117 0.10376,0.494294 -0.0322,0.06008 -0.0822,0.109231 -0.11092,0.109231 -0.15719,0 -0.22454,-0.448874 -0.0847,-0.564902 0.0323,-0.0267 0.0633,-0.03862 0.0921,-0.03862 z m 5.9003,0.09511 c 0.27975,0 0.23593,0.208337 -0.0823,0.391459 -0.0563,0.03247 -0.0624,0.07235 -0.022,0.144871 0.0331,0.05937 0.0373,0.182596 0.0104,0.302863 -0.0658,0.291355 -0.0204,0.285929 0.12081,-0.01448 0.14261,-0.303396 0.35733,-0.404596 0.48569,-0.229059 0.17188,0.235073 0.029,0.674885 -0.35946,1.104557 -0.22303,0.246871 -0.34864,0.329407 -0.55939,0.367639 -0.22633,0.04111 -0.22646,-0.121338 0,-0.411994 0.21062,-0.270346 0.30104,-0.561635 0.0994,-0.320293 -0.0556,0.06655 -0.14914,0.130261 -0.20777,0.141553 -0.0651,0.01262 -0.12081,0.08666 -0.14276,0.189661 -0.02,0.09303 -0.0768,0.264466 -0.12641,0.38098 h -2e-4 c -0.0725,0.169947 -0.12042,0.211843 -0.2424,0.211843 -0.15054,0 -0.15171,-0.0032 -0.11979,-0.311909 0.036,-0.348283 0.29489,-0.892727 0.73492,-1.545554 0.21423,-0.317775 0.30048,-0.402168 0.41134,-0.402168 z m -11.86758,0.08991 h 9e-5 c 0.0254,0 0.0558,0.0077 0.091,0.02632 0.13757,0.07363 0.22788,0.248953 0.18536,0.359799 -0.0485,0.126296 -0.17037,0.109879 -0.27308,-0.03683 -0.12564,-0.179496 -0.11288,-0.346701 -0.005,-0.349423 z m 9.88116,0.194079 c 0.11132,-9e-5 0.23762,0.03683 0.31987,0.103398 0.12953,0.104947 0.12953,0.104985 -0.0814,0.362219 -0.116,0.141476 -0.24977,0.272211 -0.29745,0.290503 -0.21549,0.08269 -0.41618,-0.0092 -0.41618,-0.189872 0,-0.101186 0.20977,-0.463253 0.30352,-0.524531 0.0433,-0.02837 0.10467,-0.04164 0.17146,-0.04169 z m 0.8937,0.05496 c 0.14793,0 0.18409,0.147041 0.0766,0.311146 -0.0507,0.07743 -0.11209,0.14079 -0.13615,0.14079 -0.0753,0 -0.17949,-0.131304 -0.17949,-0.225964 0,-0.12057 0.11157,-0.225972 0.23908,-0.225972 z m -3.24347,0.0068 c 0.18481,-4.74e-4 0.31419,0.344619 0.16858,0.490214 -0.0915,0.09153 -0.12421,0.08596 -0.23843,-0.04029 -0.1259,-0.139125 -0.0994,-0.420422 0.0422,-0.447286 0.009,-0.0013 0.0187,-0.0019 0.0277,-0.0019 z m 6.63998,0.05586 c 0.0705,-1.3e-5 0.0928,0.02613 0.0928,0.0941 0,0.05944 -0.0465,0.150051 -0.10337,0.201471 -0.13111,0.118712 -0.22939,0.119052 -0.27462,6.42e-4 -0.0515,-0.134296 0.0559,-0.272025 0.22826,-0.29261 0.022,-0.0019 0.0406,-0.0038 0.0569,-0.0038 z m -5.6128,0.11332 c 0.0334,0 0.0695,0.02574 0.11392,0.07922 0.0514,0.06206 0.0573,0.152063 0.0209,0.324827 h 1.2e-4 c -0.0389,0.184556 -0.0788,0.243022 -0.17532,0.256748 -0.16989,0.02414 -0.22039,-0.192121 -0.10779,-0.461641 0.0557,-0.133212 0.0992,-0.199146 0.14815,-0.199146 z m -3.07785,0.02581 c 0.0372,0 0.0838,0.05759 0.18856,0.200037 0.0996,0.135333 0.1738,0.282426 0.16526,0.326916 -0.0284,0.146503 -0.15376,0.130343 -0.32614,-0.04208 -0.18729,-0.187285 -0.20682,-0.275559 -0.095,-0.428648 0.0259,-0.03555 0.045,-0.05624 0.0672,-0.05624 z m -2.37261,0.13703 c 0.11575,0 0.13975,0.146984 0.0658,0.402618 -0.076,0.262922 -0.15499,0.32229 -0.25984,0.195944 -0.12863,-0.154984 0.0151,-0.598562 0.19409,-0.598562 z m 10.29721,0.06303 c 0.0422,1.34e-4 0.0682,0.01557 0.0682,0.05002 0,0.03107 -0.0334,0.05642 -0.0742,0.05642 -0.10885,0 -0.33546,0.265447 -0.54306,0.635853 -0.20957,0.373909 -0.40043,0.523499 -0.39826,0.312363 0.003,-0.190519 0.1854,-0.558018 0.3719,-0.74431 0.17388,-0.173706 0.44895,-0.3108 0.57562,-0.31037 z m -4.33998,0.191204 c 0.15258,0 0.21171,0.03132 0.26679,0.141232 0.0443,0.08864 0.11028,0.135168 0.17663,0.125009 0.17202,-0.02633 0.23862,0.108854 0.19123,0.387713 -0.033,0.193714 -0.0692,0.253769 -0.16088,0.267001 -0.1251,0.01806 -0.18696,-0.107829 -0.18911,-0.384285 0,-0.141232 -0.003,-0.141252 -0.13649,0.02793 -0.13487,0.168607 -0.13569,0.168798 -0.25652,0.05944 -0.0966,-0.08728 -0.11769,-0.16222 -0.10455,-0.366857 0.0165,-0.252641 0.0203,-0.257184 0.21284,-0.257184 z m 1.34608,0.08474 c 0.10247,0 0.18263,0.373499 0.11926,0.555642 -0.0597,0.171631 -0.17971,0.234298 -0.24526,0.128203 -0.0173,-0.02779 -0.006,-0.183813 0.0248,-0.346668 0.0309,-0.162855 0.0562,-0.305363 0.0562,-0.316655 0,-0.01133 0.0203,-0.02057 0.0452,-0.02057 z m -2.61701,0.3428 c 0.0357,-4.09e-4 0.0769,0.01896 0.12082,0.06303 0.12187,0.121812 0.17067,0.497376 0.0728,0.559389 -0.13542,0.08575 -0.22094,0.05707 -0.27804,-0.09324 -0.10481,-0.275784 -0.0433,-0.527868 0.0845,-0.529156 z m -9.83316,0.05149 c 0.0758,2.04e-4 0.1781,0.06851 0.24825,0.184697 0.12706,0.210382 0.40668,1.053598 0.40668,1.226131 0,0.130024 -0.0718,0.151026 -0.15334,0.0449 -0.31563,-0.410758 -0.65503,-1.204271 -0.5937,-1.388212 0.0154,-0.04631 0.0496,-0.06768 0.0923,-0.06754 z m 11.91197,0.115958 c 0.0235,6.4e-5 0.0515,0.01236 0.0863,0.03421 0.14345,0.08984 0.14741,0.280383 0.0104,0.501462 -0.20391,0.329932 -0.30123,0.249587 -0.23158,-0.191096 0.0398,-0.250811 0.0696,-0.344754 0.1345,-0.344575 z m -2.63543,0.135051 c 0.0241,4.09e-4 0.0387,0.01492 0.049,0.04426 0.014,0.04023 0.0503,0.140316 0.0803,0.222546 h 1e-4 c 0.038,0.104735 0.0341,0.177407 -0.0134,0.242502 -0.0623,0.08507 -0.0787,0.08299 -0.19408,-0.0246 -0.15811,-0.14722 -0.16416,-0.371348 -0.013,-0.452589 0.0402,-0.02153 0.0693,-0.03228 0.0906,-0.03216 z m 4.77864,0.319306 c 0.0375,0 0.0446,0.02697 0.0228,0.08418 -0.026,0.06791 -0.007,0.08007 0.0787,0.05265 0.0934,-0.02965 0.11262,-0.0099 0.11262,0.116732 0,0.08387 -0.0513,0.235617 -0.11417,0.337176 -0.0628,0.101568 -0.1552,0.200434 -0.20532,0.219675 -0.0767,0.02933 -0.0859,0.0032 -0.059,-0.163958 0.0352,-0.217189 -0.0346,-0.264254 -0.12927,-0.08715 -0.0805,0.150468 -0.26294,0.241344 -0.39833,0.198385 -0.20846,-0.06618 -0.12302,-0.239109 0.24938,-0.504894 0.2339,-0.16691 0.38007,-0.252769 0.44256,-0.252769 z m -3.46866,0.27816 c 0.14582,0 0.24913,0.24258 0.18039,0.423446 -0.0751,0.197175 -0.16071,0.176473 -0.2607,-0.06284 -0.0985,-0.235618 -0.0705,-0.360562 0.0803,-0.360562 z m 2.47932,0.518556 c 0.0857,-0.0013 0.13005,0.10439 0.13005,0.315777 0,0.150116 -0.0305,0.303428 -0.0677,0.340712 -0.1087,0.108726 -0.2614,0.07872 -0.35926,-0.07061 -0.10728,-0.163663 -0.0736,-0.304318 0.11445,-0.481163 0.0734,-0.06897 0.13443,-0.103846 0.18246,-0.104704 z m -5.35439,0.0092 c 0.033,0 0.0699,0.02229 0.11574,0.06366 0.18816,0.170278 0.18172,0.313707 -0.0235,0.518894 -0.31979,0.319813 -0.44177,0.208935 -0.286,-0.260053 0.0752,-0.225778 0.12603,-0.322502 0.19377,-0.322502 z m 2.16817,0.38241 c 0.089,-4.1e-4 0.12238,0.03683 0.16859,0.159102 0.0452,0.120159 0.0934,0.164482 0.15657,0.144428 0.116,-0.03684 0.30404,0.16666 0.26004,0.281356 -0.0479,0.124945 -0.24245,0.106862 -0.33939,-0.03158 -0.0572,-0.08159 -0.11796,-0.107317 -0.19495,-0.08286 -0.15216,0.04823 -0.30404,-0.11321 -0.28235,-0.300219 0.0133,-0.115337 0.0524,-0.15223 0.17586,-0.166385 0.0207,-0.0019 0.0391,-0.0038 0.0556,-0.0038 z m -1.60781,0.03888 c 0.11575,0.0013 0.24814,0.07921 0.41288,0.232698 0.12655,0.117917 0.12655,0.117968 -0.1463,0.372039 -0.29499,0.274726 -0.41731,0.309108 -0.55244,0.155239 -0.14818,-0.168755 -0.16159,-0.31513 -0.0461,-0.50499 0.10442,-0.171732 0.20878,-0.256485 0.33198,-0.254986 z m 0.80179,0.535671 c 0.22264,-0.0045 0.38339,0.229289 0.192,0.440791 -0.11678,0.129094 -0.43187,0.14469 -0.53018,0.0262 -0.0979,-0.117911 -0.0536,-0.255909 0.12474,-0.388922 0.0715,-0.05329 0.14536,-0.07682 0.21347,-0.07812 z m 6.39872,1.251957 c 0.0197,-2.13e-4 0.0346,0.0038 0.0439,0.013 0.0614,0.06155 0.006,0.137734 -0.19196,0.263915 -0.30007,0.191191 -0.53355,0.165821 -0.30541,-0.03311 0.15844,-0.138202 0.35888,-0.242451 0.45347,-0.243732 z"
         clip-path="none"
         sodipodi:nodetypes="ccsccccccccsccsssscccccsscccssssscccscssccccccscccccssccccccccssccccscccsscccccccsscccscccscccccccccccccscccccsccccscccsscscsssccscsscscscccscscccccscscssscscsccscccssscsscsccscssscccssscccsscccccsscscssscsscscsccsccsccccccsccccsccccssscscscscsccccscscccsccccsccccsccccsccsccscccccscscccccccccssccccccscscccccccccsccsccccsccscsccscccsccccccccccccccsccccscscsssscscccccccccccccsccccccccccccccsccsccccccccccccccscscsscccccccsccscccscccsssccccccccsscccccscccccscsccsccscssccccscccccsccccsccccccscccccscscssscccscccccccccccccccccccccscccccccccsccssscsssccscscscsccscccccsccccccccsccccccsscssccsccscccssccsscscccscccsccccccccscssccccccccccccsssscscccccccssscccsccsccsccscssssscccsssccsssscscscccccccccccccccccccsssccccccccccssccccssccccsccccccccsscccssssscccccccscccccscccccsscscccccsscscsscccccscccccccccccccscccccccccscccccccscccccccccccsccsccccssssscsscsccccscccsscccccccccccscccccccsscccccccc" />
      <g
         id="g16135"
         transform="translate(0,0.32562977)">
        <g
           id="g36396"
           transform="matrix(0.8932757,0,0,0.8932757,-298.95626,144.54618)"
           style="fill:#54301e;fill-opacity:1">
          <path
             id="path36390"
             style="fill:#54301e;fill-opacity:1;stroke:none;stroke-width:1.351;stroke-linecap:round;stroke-linejoin:round;stroke-dasharray:none;stroke-opacity:1;paint-order:markers stroke fill"
             d="m 566.57834,-73.952075 0.0217,0.348299 c 0.005,0.07422 0.007,0.134619 0.005,0.186552 -8.2e-4,0.02597 -0.003,0.04964 -0.006,0.07183 -0.003,0.02219 -0.007,0.04293 -0.0119,0.06253 -0.005,0.0196 -0.0118,0.03812 -0.0196,0.05633 -0.008,0.01821 -0.017,0.03626 -0.0279,0.05426 -0.0218,0.03601 -0.0496,0.07287 -0.0853,0.115239 -0.0299,0.03555 -0.0607,0.06834 -0.0925,0.0987 -0.0318,0.03037 -0.0651,0.05794 -0.10025,0.08371 -0.0352,0.02577 -0.0726,0.04955 -0.11266,0.07131 -0.0401,0.02177 -0.0827,0.0416 -0.12919,0.05994 -0.0465,0.01835 -0.0966,0.03512 -0.15089,0.05064 -0.0543,0.01552 -0.11308,0.03013 -0.17674,0.04341 -0.0637,0.01328 -0.13221,0.02507 -0.2067,0.03669 -0.0745,0.01162 -0.15451,0.02303 -0.24133,0.03359 -0.15019,0.01826 -0.26422,0.03203 -0.35502,0.04754 -0.0454,0.0078 -0.0847,0.01615 -0.12041,0.02532 -0.0357,0.0092 -0.0677,0.01903 -0.0971,0.03101 -0.0294,0.01197 -0.0566,0.02568 -0.0832,0.04186 -0.0266,0.01618 -0.0529,0.03506 -0.0801,0.05684 -0.0545,0.04356 -0.11362,0.09979 -0.19121,0.17415 l -0.31574,0.302307 8.41034,0.03307 c 4.62562,0.01809 8.68854,0.03562 9.02839,0.03927 l 0.61753,0.0067 -0.74776,-0.05271 c -0.41139,-0.02917 -1.78673,-0.112897 -3.05666,-0.186035 -1.2699,-0.07314 -2.73331,-0.161617 -3.25199,-0.196371 -0.51871,-0.03475 -1.19198,-0.07853 -1.49604,-0.09715 -0.94758,-0.05802 -1.66325,-0.102063 -2.20968,-0.13746 -0.54644,-0.0354 -0.92391,-0.06201 -1.19424,-0.08578 -0.13517,-0.01188 -0.24373,-0.02307 -0.33332,-0.03411 -0.0896,-0.01104 -0.15998,-0.02202 -0.21962,-0.03359 -0.0596,-0.01157 -0.10815,-0.02373 -0.15348,-0.03721 -0.0453,-0.01347 -0.0877,-0.02821 -0.13436,-0.04496 -0.0755,-0.02712 -0.14131,-0.04841 -0.20205,-0.0646 -0.0607,-0.01618 -0.1163,-0.02722 -0.17209,-0.03359 -0.0558,-0.0064 -0.11144,-0.008 -0.17208,-0.0057 -0.0606,0.0023 -0.12622,0.0087 -0.20154,0.0186 -0.15688,0.02062 -0.27361,0.03598 -0.36173,0.04393 -0.0441,0.004 -0.0809,0.0065 -0.11214,0.0062 -0.0313,-2.73e-4 -0.0571,-0.003 -0.0785,-0.0083 -0.0214,-0.0052 -0.0387,-0.01338 -0.0532,-0.02429 -0.0145,-0.01091 -0.0262,-0.02455 -0.0367,-0.04186 -0.0105,-0.0173 -0.0195,-0.03811 -0.0289,-0.06253 -0.009,-0.02442 -0.0192,-0.05251 -0.0305,-0.08475 -0.0229,-0.06538 -0.0565,-0.143913 -0.092,-0.218075 -0.0355,-0.07416 -0.073,-0.144058 -0.10387,-0.191202 -0.0161,-0.02456 -0.037,-0.04985 -0.0615,-0.07596 -0.0245,-0.02611 -0.053,-0.05297 -0.0842,-0.07958 -0.0313,-0.02661 -0.0655,-0.05301 -0.10181,-0.07906 -0.0363,-0.02605 -0.0746,-0.05152 -0.1142,-0.07596 -0.0396,-0.02444 -0.0807,-0.04799 -0.12196,-0.06976 -0.0412,-0.02178 -0.0829,-0.04189 -0.12402,-0.05994 -0.0412,-0.01806 -0.0816,-0.03426 -0.12093,-0.04754 -0.0393,-0.01328 -0.0774,-0.02356 -0.11317,-0.03101 z" />
          <path
             id="path36392"
             style="fill:#54301e;fill-opacity:1;stroke:none;stroke-width:1.351;stroke-linecap:round;stroke-linejoin:round;stroke-dasharray:none;stroke-opacity:1;paint-order:markers stroke fill"
             d="m 553.6954,-73.985148 c -0.0223,8.56e-4 -0.0518,0.0073 -0.0909,0.01705 -0.0692,0.01717 -0.13456,0.03638 -0.19585,0.05736 -0.0613,0.02099 -0.11864,0.04394 -0.1726,0.06925 -0.054,0.02531 -0.1042,0.05254 -0.15141,0.08268 -0.0472,0.03014 -0.0912,0.06323 -0.1323,0.0987 -0.041,0.03548 -0.0792,0.07341 -0.11472,0.114721 -0.0355,0.04131 -0.0682,0.08567 -0.0987,0.133326 -0.0305,0.04766 -0.0587,0.09897 -0.0847,0.153479 -0.0261,0.0545 -0.0501,0.112293 -0.0724,0.174149 -0.0257,0.07143 -0.0469,0.126831 -0.0661,0.168982 -0.01,0.02108 -0.0187,0.03883 -0.0279,0.05374 -0.009,0.01492 -0.0184,0.02664 -0.0279,0.03617 -0.01,0.0095 -0.0194,0.01678 -0.03,0.0217 -0.0106,0.0049 -0.0221,0.0077 -0.0346,0.0088 -0.0125,0.0011 -0.0257,4.17e-4 -0.0408,-0.0015 -0.0152,-0.002 -0.0321,-0.0051 -0.0506,-0.0093 -0.0648,-0.01485 -0.1268,-0.02775 -0.18604,-0.03876 -0.0592,-0.01101 -0.1158,-0.02024 -0.17053,-0.02739 -0.0547,-0.0072 -0.10733,-0.01222 -0.15865,-0.0155 -0.0513,-0.0033 -0.1014,-0.0047 -0.15038,-0.0041 -0.049,5.99e-4 -0.097,0.0033 -0.14469,0.0078 -0.0477,0.0045 -0.0951,0.01072 -0.14263,0.01912 -0.0476,0.0084 -0.0952,0.01868 -0.14366,0.03101 -0.0485,0.01232 -0.0978,0.02663 -0.14831,0.04289 -0.0426,0.0137 -0.0866,0.02641 -0.13436,0.03824 -0.0478,0.01184 -0.0992,0.02319 -0.15658,0.03359 -0.0574,0.0104 -0.1209,0.02006 -0.19223,0.02946 -0.0713,0.0094 -0.15064,0.01856 -0.2403,0.02739 -0.17933,0.01765 -0.39966,0.03425 -0.67851,0.05219 -0.27885,0.01794 -0.61608,0.03672 -1.0294,0.05839 -1.10893,0.05814 -3.02605,0.162732 -4.2602,0.232027 -1.23414,0.06929 -3.23927,0.177382 -4.45554,0.240296 l -2.21124,0.114205 7.60987,0.03307 c 4.18536,0.01812 8.4133,0.03985 9.39581,0.04857 l 1.78646,0.01602 -0.35295,-0.357601 c -0.0778,-0.07881 -0.14109,-0.140794 -0.19534,-0.189136 -0.0271,-0.02417 -0.0519,-0.04462 -0.0754,-0.06253 -0.0236,-0.01791 -0.0457,-0.03293 -0.0672,-0.04547 -0.0215,-0.01255 -0.0425,-0.02292 -0.0636,-0.03101 -0.021,-0.0081 -0.0425,-0.01407 -0.0646,-0.0186 -0.0221,-0.0045 -0.045,-0.0074 -0.0698,-0.0093 -0.0247,-0.0019 -0.0512,-0.003 -0.0801,-0.0031 -0.0361,-1.85e-4 -0.0829,-0.0028 -0.13694,-0.0078 -0.054,-0.0049 -0.11504,-0.012 -0.17932,-0.02067 -0.0643,-0.0087 -0.1317,-0.01913 -0.19843,-0.03049 -0.0667,-0.01136 -0.13286,-0.02367 -0.19431,-0.03669 -0.045,-0.0095 -0.0888,-0.02006 -0.13125,-0.03152 -0.0424,-0.01146 -0.0837,-0.02388 -0.12351,-0.03721 -0.0399,-0.01333 -0.078,-0.02724 -0.11524,-0.04238 -0.0372,-0.01513 -0.0735,-0.03119 -0.108,-0.04806 -0.0345,-0.01687 -0.0675,-0.03468 -0.0992,-0.05323 -0.0317,-0.01855 -0.0616,-0.03824 -0.0904,-0.05839 -0.0289,-0.02016 -0.0567,-0.04082 -0.0827,-0.06253 -0.0259,-0.0217 -0.0504,-0.04451 -0.0734,-0.0677 -0.023,-0.02318 -0.0441,-0.04671 -0.0641,-0.07131 -0.0199,-0.0246 -0.0385,-0.05001 -0.0553,-0.07596 -0.0168,-0.02595 -0.0323,-0.05234 -0.046,-0.07958 -0.0137,-0.02724 -0.0257,-0.05525 -0.0362,-0.08372 -0.0104,-0.02846 -0.0192,-0.05771 -0.0263,-0.08733 -0.007,-0.02962 -0.0122,-0.05972 -0.016,-0.09043 -0.004,-0.03071 -0.006,-0.06179 -0.007,-0.09353 -3.7e-4,-0.03174 10e-4,-0.06393 0.004,-0.09663 0.006,-0.05948 0.01,-0.104752 0.01,-0.138493 7e-5,-0.01687 -5.6e-4,-0.03088 -0.003,-0.04238 -0.002,-0.01149 -0.005,-0.02057 -0.01,-0.02739 -0.005,-0.0068 -0.011,-0.01163 -0.0186,-0.01447 -0.008,-0.0028 -0.0168,-0.0035 -0.0279,-0.0031 z" />
          <path
             id="path36394"
             style="fill:#54301e;fill-opacity:1;stroke:none;stroke-width:1.351;stroke-linecap:round;stroke-linejoin:round;stroke-dasharray:none;stroke-opacity:1;paint-order:markers stroke fill"
             d="m 560.15857,-76.777743 -0.16846,0.422714 c -0.0353,0.08866 -0.0633,0.165744 -0.0858,0.240812 -0.0112,0.03753 -0.0214,0.0747 -0.03,0.112138 -0.009,0.03743 -0.0155,0.07519 -0.0217,0.114721 -0.0125,0.07906 -0.0211,0.164458 -0.0264,0.265101 -0.005,0.100642 -0.007,0.21676 -0.008,0.356567 -10e-4,0.183332 -0.005,0.349939 -0.0109,0.470772 -0.003,0.06042 -0.006,0.10929 -0.009,0.143144 -0.004,0.03385 -0.007,0.05271 -0.0114,0.05271 -0.008,0 -0.0605,-0.02982 -0.13952,-0.07803 -0.0791,-0.04821 -0.18437,-0.114958 -0.29663,-0.188102 -0.0519,-0.03383 -0.1045,-0.06548 -0.15709,-0.09457 -0.0526,-0.02909 -0.10552,-0.0557 -0.1571,-0.07958 -0.0516,-0.02389 -0.102,-0.04482 -0.15089,-0.06305 -0.0489,-0.01823 -0.096,-0.03336 -0.14056,-0.04547 -0.0446,-0.01212 -0.0865,-0.02132 -0.12506,-0.02687 -0.0385,-0.0056 -0.0736,-0.0077 -0.10439,-0.0062 -0.0308,0.0015 -0.0576,0.0066 -0.0791,0.0155 -0.0107,0.0045 -0.0198,0.01011 -0.0279,0.01654 -0.008,0.0064 -0.0149,0.01379 -0.0201,0.02222 -0.007,0.01164 -0.009,0.02203 -0.007,0.03101 0.002,0.009 0.009,0.01659 0.0202,0.02274 0.0114,0.0061 0.0274,0.0108 0.0475,0.01395 0.0202,0.0032 0.0447,0.0047 0.0734,0.0047 0.0317,0 0.0626,0.0034 0.093,0.01033 0.0304,0.0069 0.0605,0.01746 0.0889,0.03049 0.0284,0.01303 0.0555,0.02869 0.0811,0.04703 0.0256,0.01834 0.0498,0.03917 0.0718,0.06201 0.0221,0.02284 0.0417,0.04788 0.0594,0.07441 0.0177,0.02654 0.0334,0.05481 0.046,0.08423 0.0126,0.02943 0.0223,0.05996 0.0289,0.09147 0.007,0.03151 0.0103,0.06385 0.0103,0.09664 0,0.0243 -10e-4,0.0478 -0.004,0.07028 -0.002,0.02248 -0.006,0.0439 -0.0114,0.0646 -0.005,0.0207 -0.011,0.04047 -0.0186,0.05943 -0.008,0.01896 -0.0166,0.037 -0.0269,0.05426 -0.0103,0.01726 -0.0221,0.03401 -0.0351,0.04961 -0.0131,0.0156 -0.0275,0.02994 -0.0434,0.04393 -0.0159,0.01399 -0.0333,0.02738 -0.0522,0.03979 -0.0189,0.01241 -0.0396,0.02426 -0.0615,0.03514 -0.0219,0.01088 -0.0452,0.02059 -0.0703,0.02997 -0.025,0.0094 -0.0518,0.01842 -0.0801,0.02635 -0.0565,0.01587 -0.11932,0.02896 -0.18913,0.03927 -0.0698,0.01032 -0.1467,0.01764 -0.23048,0.02274 -0.0838,0.0051 -0.17443,0.0075 -0.27285,0.0078 -0.054,1.23e-4 -0.10572,-0.0017 -0.15451,-0.0062 -0.0488,-0.0045 -0.0947,-0.01143 -0.1385,-0.02067 -0.0438,-0.0092 -0.0851,-0.02106 -0.12402,-0.03514 -0.0389,-0.01408 -0.0758,-0.03059 -0.11007,-0.04961 -0.0343,-0.01902 -0.0663,-0.04052 -0.0961,-0.06459 -0.0298,-0.02407 -0.0571,-0.05087 -0.0827,-0.0801 -0.0256,-0.02923 -0.0488,-0.0606 -0.0703,-0.09508 -0.0215,-0.03449 -0.0413,-0.07177 -0.0589,-0.111622 l -0.10491,-0.238745 -0.16846,0.205156 c -0.0462,0.05635 -0.0937,0.111724 -0.13333,0.155546 -0.0397,0.04382 -0.0713,0.07616 -0.0853,0.0863 -0.007,0.0051 -0.0354,0.01223 -0.0801,0.02067 -0.0447,0.0084 -0.10621,0.01788 -0.17984,0.02842 -0.14725,0.02108 -0.34293,0.04534 -0.55242,0.06718 -0.15495,0.01615 -0.28211,0.03081 -0.38705,0.04548 -0.10494,0.01467 -0.18783,0.02928 -0.25528,0.04547 -0.0337,0.0081 -0.0637,0.01628 -0.0904,0.02532 -0.0267,0.009 -0.0501,0.01909 -0.0713,0.02946 -0.0212,0.01036 -0.0405,0.02101 -0.0579,0.03307 -0.0174,0.01206 -0.033,0.02514 -0.0481,0.03927 -0.022,0.02063 -0.0415,0.04151 -0.0584,0.06201 -0.0169,0.0205 -0.0311,0.04063 -0.0429,0.06098 -0.0118,0.02035 -0.0207,0.04082 -0.0274,0.06098 -0.007,0.02016 -0.0108,0.04 -0.0124,0.05994 -0.002,0.01994 -9.1e-4,0.03973 0.003,0.05943 0.004,0.0197 0.009,0.03948 0.0181,0.05891 0.009,0.01943 0.0199,0.03875 0.0336,0.05788 0.0137,0.01913 0.0298,0.03804 0.0486,0.05684 0.0146,0.01464 0.0347,0.02753 0.061,0.03824 0.0263,0.01071 0.0591,0.01911 0.0997,0.02584 0.0406,0.0067 0.089,0.01177 0.14677,0.01447 0.0577,0.0027 0.12448,0.0034 0.20205,0.0021 0.0776,-0.0014 0.166,-0.0048 0.26613,-0.01034 0.10014,-0.0055 0.21202,-0.01305 0.33745,-0.02274 0.25087,-0.01937 0.55502,-0.04736 0.92346,-0.08372 0.16992,-0.01677 0.48445,-0.03996 0.85369,-0.06356 0.36925,-0.0236 0.7936,-0.04762 1.18391,-0.06666 0.18357,-0.009 0.37406,-0.01541 0.57103,-0.01964 0.19696,-0.0042 0.40005,-0.0061 0.60874,-0.0057 0.2087,4.22e-4 0.42307,0.0033 0.64183,0.0083 0.21875,0.005 0.44205,0.01219 0.6692,0.0217 0.22716,0.0095 0.45807,0.02118 0.69195,0.03514 0.23388,0.01396 0.47058,0.03024 0.70952,0.04858 0.23894,0.01833 0.48011,0.03886 0.72244,0.06149 0.24232,0.02264 0.48613,0.04703 0.73018,0.0739 0.25408,0.02798 0.44598,0.04937 0.59377,0.06408 0.14779,0.0147 0.25144,0.02264 0.32918,0.02532 0.0389,0.0013 0.0711,0.0014 0.0992,0 0.0281,-0.0014 0.052,-0.0042 0.0739,-0.0083 0.022,-0.004 0.0422,-0.0095 0.0625,-0.01602 0.0201,-0.0065 0.0406,-0.01401 0.0636,-0.02274 h 5.2e-4 c 0.0276,-0.01054 0.0525,-0.02343 0.0744,-0.03772 0.022,-0.01437 0.0412,-0.03049 0.0574,-0.04806 0.0161,-0.01757 0.0292,-0.03666 0.0393,-0.05684 0.0101,-0.02018 0.0172,-0.04135 0.0212,-0.06356 0.004,-0.02221 0.005,-0.04508 0.003,-0.06873 -0.002,-0.02365 -0.007,-0.04785 -0.016,-0.07235 -0.009,-0.0245 -0.0201,-0.04965 -0.0351,-0.07441 -0.015,-0.02476 -0.0332,-0.04946 -0.0548,-0.0739 -0.0154,-0.01745 -0.0307,-0.03312 -0.047,-0.04754 -0.0163,-0.01443 -0.0338,-0.02725 -0.0532,-0.03927 -0.0195,-0.01202 -0.0413,-0.02335 -0.0662,-0.03359 -0.0248,-0.01024 -0.0528,-0.01986 -0.0853,-0.02894 -0.0325,-0.0091 -0.0693,-0.01729 -0.11162,-0.02584 -0.0423,-0.0085 -0.0898,-0.01721 -0.14418,-0.02584 -0.10871,-0.01726 -0.24361,-0.0355 -0.41393,-0.05684 l -0.78083,-0.09767 -0.2434,-0.275952 c -0.0597,-0.06763 -0.10496,-0.11842 -0.13901,-0.153996 -0.017,-0.01779 -0.0314,-0.03204 -0.0434,-0.04237 -0.012,-0.01034 -0.0217,-0.01689 -0.0295,-0.02015 -0.008,-0.0033 -0.0136,-0.0029 -0.0181,5.17e-4 -0.004,0.0034 -0.008,0.0099 -0.01,0.01964 -0.004,0.01953 -0.004,0.05147 -0.004,0.09405 -3e-5,0.03075 -0.005,0.06207 -0.0129,0.09405 -0.008,0.03198 -0.0199,0.06465 -0.0351,0.09664 -0.0152,0.03198 -0.0337,0.06328 -0.0548,0.09405 -0.0211,0.03077 -0.0449,0.06107 -0.0708,0.0894 -0.0259,0.02833 -0.0536,0.05491 -0.0832,0.07958 -0.0296,0.02467 -0.0609,0.04739 -0.093,0.06718 -0.0321,0.01979 -0.0652,0.03644 -0.0987,0.05013 -0.0335,0.01368 -0.0674,0.02414 -0.10129,0.03049 -0.039,0.0073 -0.0847,0.01139 -0.13487,0.01292 -0.0502,0.0015 -0.10509,4.6e-4 -0.16278,-0.0031 -0.0577,-0.0036 -0.11837,-0.0091 -0.17984,-0.01705 -0.0615,-0.0079 -0.12399,-0.01835 -0.18551,-0.02997 -0.0615,-0.01163 -0.12198,-0.02467 -0.17984,-0.03927 -0.0579,-0.01461 -0.11281,-0.03066 -0.1633,-0.04754 -0.0505,-0.01688 -0.0965,-0.03477 -0.1359,-0.05323 -0.0394,-0.01846 -0.0721,-0.03752 -0.0966,-0.05684 -0.02,-0.01576 -0.0383,-0.03242 -0.0548,-0.04961 -0.0164,-0.01719 -0.031,-0.03487 -0.0439,-0.05323 -0.0129,-0.01835 -0.0241,-0.03706 -0.0336,-0.05633 -0.009,-0.01927 -0.0171,-0.03899 -0.0233,-0.05891 -0.006,-0.01992 -0.0106,-0.04014 -0.0134,-0.06046 -0.003,-0.02033 -0.004,-0.04102 -0.004,-0.06149 3.6e-4,-0.02048 0.003,-0.04061 0.006,-0.06098 0.003,-0.02037 0.008,-0.04097 0.0145,-0.06098 0.006,-0.02001 0.0149,-0.03952 0.0243,-0.05891 0.009,-0.01939 0.0203,-0.03832 0.0326,-0.05684 0.0123,-0.01852 0.0258,-0.03687 0.0408,-0.05426 0.0151,-0.0174 0.0318,-0.03411 0.0496,-0.05013 0.0178,-0.01601 0.0365,-0.03109 0.0568,-0.04547 0.0204,-0.01438 0.0422,-0.02782 0.0651,-0.04031 0.0229,-0.01249 0.047,-0.02428 0.0724,-0.03462 0.0254,-0.01035 0.0518,-0.01944 0.0796,-0.02739 0.0386,-0.01107 0.0685,-0.0205 0.0899,-0.02894 0.0214,-0.0084 0.0345,-0.01589 0.0398,-0.02326 0.003,-0.0037 0.003,-0.0071 0.002,-0.01085 -0.001,-0.0037 -0.004,-0.0074 -0.009,-0.01137 -0.01,-0.0078 -0.0265,-0.01647 -0.0501,-0.02636 -0.0208,-0.0087 -0.042,-0.01531 -0.0641,-0.01964 -0.0221,-0.0043 -0.0454,-0.0061 -0.0698,-0.0057 -0.0243,4.19e-4 -0.0498,0.0032 -0.0775,0.0088 -0.0277,0.0055 -0.0572,0.01376 -0.0894,0.02481 -0.0322,0.01104 -0.0672,0.02494 -0.10491,0.04186 -0.0377,0.01691 -0.0781,0.03678 -0.12247,0.05994 -0.0887,0.04633 -0.19179,0.105226 -0.31367,0.178801 -0.11975,0.07228 -0.23369,0.138394 -0.3204,0.186035 -0.0433,0.02382 -0.0797,0.04298 -0.10697,0.05633 -0.0272,0.01335 -0.0453,0.02067 -0.0512,0.02067 -0.003,0 -0.006,-0.002 -0.008,-0.0057 -0.002,-0.0037 -0.004,-0.009 -0.006,-0.01602 -0.004,-0.01404 -0.006,-0.03438 -0.007,-0.05943 -10e-4,-0.02505 -0.002,-0.05481 -5.2e-4,-0.08785 10e-4,-0.03304 0.004,-0.06948 0.008,-0.107487 0.006,-0.056 0.009,-0.116086 0.01,-0.1788 10e-4,-0.06271 -1.8e-4,-0.128079 -0.004,-0.195337 -0.003,-0.06726 -0.009,-0.136039 -0.0165,-0.205673 -0.008,-0.06963 -0.0171,-0.139965 -0.0284,-0.209806 -0.0113,-0.06984 -0.024,-0.139342 -0.0388,-0.207222 -0.0147,-0.06788 -0.0313,-0.134169 -0.0491,-0.197921 -0.0178,-0.06375 -0.0369,-0.124961 -0.0574,-0.182418 -0.0205,-0.05746 -0.0423,-0.111204 -0.0651,-0.160197 z" />
        </g>
        <text
           xml:space="preserve"
           style="font-style:normal;font-variant:normal;font-weight:normal;font-stretch:normal;font-size:6.75307px;line-height:0.4;font-family:Gilroy-Regular;-inkscape-font-specification:Gilroy-Regular;fill:#5a7918;fill-opacity:1;stroke:none;stroke-width:0.106348;stroke-linecap:round;stroke-linejoin:round;paint-order:markers stroke fill"
           x="185.79933"
           y="86.498161"
           id="text36400"><tspan
             sodipodi:role="line"
             style="font-style:normal;font-variant:normal;font-weight:normal;font-stretch:normal;font-family:ROADSTORE;-inkscape-font-specification:ROADSTORE;fill:#5a7918;fill-opacity:1;stroke-width:0.106348"
             x="185.79933"
             y="86.498161"
             id="tspan36398">birrieria</tspan></text>
        <text
           xml:space="preserve"
           style="font-style:normal;font-variant:normal;font-weight:normal;font-stretch:normal;font-size:8.98276px;line-height:0.4;font-family:Impact;-inkscape-font-specification:Impact;text-align:center;text-anchor:middle;fill:#e8b22e;fill-opacity:1;stroke:none;stroke-width:1.91115;stroke-linecap:round;stroke-linejoin:round;stroke-dasharray:none;stroke-opacity:1;paint-order:markers stroke fill"
           x="201.14603"
           y="94.549187"
           id="text36404"><tspan
             sodipodi:role="line"
             id="tspan36402"
             style="font-style:normal;font-variant:normal;font-weight:normal;font-stretch:normal;font-family:Impact;-inkscape-font-specification:Impact;text-align:center;text-anchor:middle;fill:#e8b22e;fill-opacity:1;stroke-width:1.91115"
             x="201.14603"
             y="94.549187">EL TORITO</tspan></text>
        <g
           id="g36412"
           transform="matrix(0.8932757,0,0,-0.8932757,-298.95626,31.851713)"
           style="fill:#54301e;fill-opacity:1">
          <path
             id="path36406"
             style="fill:#54301e;fill-opacity:1;stroke:none;stroke-width:1.351;stroke-linecap:round;stroke-linejoin:round;stroke-dasharray:none;stroke-opacity:1;paint-order:markers stroke fill"
             d="m 566.57834,-73.952075 0.0217,0.348299 c 0.005,0.07422 0.007,0.134619 0.005,0.186552 -8.2e-4,0.02597 -0.003,0.04964 -0.006,0.07183 -0.003,0.02219 -0.007,0.04293 -0.0119,0.06253 -0.005,0.0196 -0.0118,0.03812 -0.0196,0.05633 -0.008,0.01821 -0.017,0.03626 -0.0279,0.05426 -0.0218,0.03601 -0.0496,0.07287 -0.0853,0.115239 -0.0299,0.03555 -0.0607,0.06834 -0.0925,0.0987 -0.0318,0.03037 -0.0651,0.05794 -0.10025,0.08371 -0.0352,0.02577 -0.0726,0.04955 -0.11266,0.07131 -0.0401,0.02177 -0.0827,0.0416 -0.12919,0.05994 -0.0465,0.01835 -0.0966,0.03512 -0.15089,0.05064 -0.0543,0.01552 -0.11308,0.03013 -0.17674,0.04341 -0.0637,0.01328 -0.13221,0.02507 -0.2067,0.03669 -0.0745,0.01162 -0.15451,0.02303 -0.24133,0.03359 -0.15019,0.01826 -0.26422,0.03203 -0.35502,0.04754 -0.0454,0.0078 -0.0847,0.01615 -0.12041,0.02532 -0.0357,0.0092 -0.0677,0.01903 -0.0971,0.03101 -0.0294,0.01197 -0.0566,0.02568 -0.0832,0.04186 -0.0266,0.01618 -0.0529,0.03506 -0.0801,0.05684 -0.0545,0.04356 -0.11362,0.09979 -0.19121,0.17415 l -0.31574,0.302307 8.41034,0.03307 c 4.62562,0.01809 8.68854,0.03562 9.02839,0.03927 l 0.61753,0.0067 -0.74776,-0.05271 c -0.41139,-0.02917 -1.78673,-0.112897 -3.05666,-0.186035 -1.2699,-0.07314 -2.73331,-0.161617 -3.25199,-0.196371 -0.51871,-0.03475 -1.19198,-0.07853 -1.49604,-0.09715 -0.94758,-0.05802 -1.66325,-0.102063 -2.20968,-0.13746 -0.54644,-0.0354 -0.92391,-0.06201 -1.19424,-0.08578 -0.13517,-0.01188 -0.24373,-0.02307 -0.33332,-0.03411 -0.0896,-0.01104 -0.15998,-0.02202 -0.21962,-0.03359 -0.0596,-0.01157 -0.10815,-0.02373 -0.15348,-0.03721 -0.0453,-0.01347 -0.0877,-0.02821 -0.13436,-0.04496 -0.0755,-0.02712 -0.14131,-0.04841 -0.20205,-0.0646 -0.0607,-0.01618 -0.1163,-0.02722 -0.17209,-0.03359 -0.0558,-0.0064 -0.11144,-0.008 -0.17208,-0.0057 -0.0606,0.0023 -0.12622,0.0087 -0.20154,0.0186 -0.15688,0.02062 -0.27361,0.03598 -0.36173,0.04393 -0.0441,0.004 -0.0809,0.0065 -0.11214,0.0062 -0.0313,-2.73e-4 -0.0571,-0.003 -0.0785,-0.0083 -0.0214,-0.0052 -0.0387,-0.01338 -0.0532,-0.02429 -0.0145,-0.01091 -0.0262,-0.02455 -0.0367,-0.04186 -0.0105,-0.0173 -0.0195,-0.03811 -0.0289,-0.06253 -0.009,-0.02442 -0.0192,-0.05251 -0.0305,-0.08475 -0.0229,-0.06538 -0.0565,-0.143913 -0.092,-0.218075 -0.0355,-0.07416 -0.073,-0.144058 -0.10387,-0.191202 -0.0161,-0.02456 -0.037,-0.04985 -0.0615,-0.07596 -0.0245,-0.02611 -0.053,-0.05297 -0.0842,-0.07958 -0.0313,-0.02661 -0.0655,-0.05301 -0.10181,-0.07906 -0.0363,-0.02605 -0.0746,-0.05152 -0.1142,-0.07596 -0.0396,-0.02444 -0.0807,-0.04799 -0.12196,-0.06976 -0.0412,-0.02178 -0.0829,-0.04189 -0.12402,-0.05994 -0.0412,-0.01806 -0.0816,-0.03426 -0.12093,-0.04754 -0.0393,-0.01328 -0.0774,-0.02356 -0.11317,-0.03101 z" />
          <path
             id="path36408"
             style="fill:#54301e;fill-opacity:1;stroke:none;stroke-width:1.351;stroke-linecap:round;stroke-linejoin:round;stroke-dasharray:none;stroke-opacity:1;paint-order:markers stroke fill"
             d="m 553.6954,-73.985148 c -0.0223,8.56e-4 -0.0518,0.0073 -0.0909,0.01705 -0.0692,0.01717 -0.13456,0.03638 -0.19585,0.05736 -0.0613,0.02099 -0.11864,0.04394 -0.1726,0.06925 -0.054,0.02531 -0.1042,0.05254 -0.15141,0.08268 -0.0472,0.03014 -0.0912,0.06323 -0.1323,0.0987 -0.041,0.03548 -0.0792,0.07341 -0.11472,0.114721 -0.0355,0.04131 -0.0682,0.08567 -0.0987,0.133326 -0.0305,0.04766 -0.0587,0.09897 -0.0847,0.153479 -0.0261,0.0545 -0.0501,0.112293 -0.0724,0.174149 -0.0257,0.07143 -0.0469,0.126831 -0.0661,0.168982 -0.01,0.02108 -0.0187,0.03883 -0.0279,0.05374 -0.009,0.01492 -0.0184,0.02664 -0.0279,0.03617 -0.01,0.0095 -0.0194,0.01678 -0.03,0.0217 -0.0106,0.0049 -0.0221,0.0077 -0.0346,0.0088 -0.0125,0.0011 -0.0257,4.17e-4 -0.0408,-0.0015 -0.0152,-0.002 -0.0321,-0.0051 -0.0506,-0.0093 -0.0648,-0.01485 -0.1268,-0.02775 -0.18604,-0.03876 -0.0592,-0.01101 -0.1158,-0.02024 -0.17053,-0.02739 -0.0547,-0.0072 -0.10733,-0.01222 -0.15865,-0.0155 -0.0513,-0.0033 -0.1014,-0.0047 -0.15038,-0.0041 -0.049,5.99e-4 -0.097,0.0033 -0.14469,0.0078 -0.0477,0.0045 -0.0951,0.01072 -0.14263,0.01912 -0.0476,0.0084 -0.0952,0.01868 -0.14366,0.03101 -0.0485,0.01232 -0.0978,0.02663 -0.14831,0.04289 -0.0426,0.0137 -0.0866,0.02641 -0.13436,0.03824 -0.0478,0.01184 -0.0992,0.02319 -0.15658,0.03359 -0.0574,0.0104 -0.1209,0.02006 -0.19223,0.02946 -0.0713,0.0094 -0.15064,0.01856 -0.2403,0.02739 -0.17933,0.01765 -0.39966,0.03425 -0.67851,0.05219 -0.27885,0.01794 -0.61608,0.03672 -1.0294,0.05839 -1.10893,0.05814 -3.02605,0.162732 -4.2602,0.232027 -1.23414,0.06929 -3.23927,0.177382 -4.45554,0.240296 l -2.21124,0.114205 7.60987,0.03307 c 4.18536,0.01812 8.4133,0.03985 9.39581,0.04857 l 1.78646,0.01602 -0.35295,-0.357601 c -0.0778,-0.07881 -0.14109,-0.140794 -0.19534,-0.189136 -0.0271,-0.02417 -0.0519,-0.04462 -0.0754,-0.06253 -0.0236,-0.01791 -0.0457,-0.03293 -0.0672,-0.04547 -0.0215,-0.01255 -0.0425,-0.02292 -0.0636,-0.03101 -0.021,-0.0081 -0.0425,-0.01407 -0.0646,-0.0186 -0.0221,-0.0045 -0.045,-0.0074 -0.0698,-0.0093 -0.0247,-0.0019 -0.0512,-0.003 -0.0801,-0.0031 -0.0361,-1.85e-4 -0.0829,-0.0028 -0.13694,-0.0078 -0.054,-0.0049 -0.11504,-0.012 -0.17932,-0.02067 -0.0643,-0.0087 -0.1317,-0.01913 -0.19843,-0.03049 -0.0667,-0.01136 -0.13286,-0.02367 -0.19431,-0.03669 -0.045,-0.0095 -0.0888,-0.02006 -0.13125,-0.03152 -0.0424,-0.01146 -0.0837,-0.02388 -0.12351,-0.03721 -0.0399,-0.01333 -0.078,-0.02724 -0.11524,-0.04238 -0.0372,-0.01513 -0.0735,-0.03119 -0.108,-0.04806 -0.0345,-0.01687 -0.0675,-0.03468 -0.0992,-0.05323 -0.0317,-0.01855 -0.0616,-0.03824 -0.0904,-0.05839 -0.0289,-0.02016 -0.0567,-0.04082 -0.0827,-0.06253 -0.0259,-0.0217 -0.0504,-0.04451 -0.0734,-0.0677 -0.023,-0.02318 -0.0441,-0.04671 -0.0641,-0.07131 -0.0199,-0.0246 -0.0385,-0.05001 -0.0553,-0.07596 -0.0168,-0.02595 -0.0323,-0.05234 -0.046,-0.07958 -0.0137,-0.02724 -0.0257,-0.05525 -0.0362,-0.08372 -0.0104,-0.02846 -0.0192,-0.05771 -0.0263,-0.08733 -0.007,-0.02962 -0.0122,-0.05972 -0.016,-0.09043 -0.004,-0.03071 -0.006,-0.06179 -0.007,-0.09353 -3.7e-4,-0.03174 10e-4,-0.06393 0.004,-0.09663 0.006,-0.05948 0.01,-0.104752 0.01,-0.138493 7e-5,-0.01687 -5.6e-4,-0.03088 -0.003,-0.04238 -0.002,-0.01149 -0.005,-0.02057 -0.01,-0.02739 -0.005,-0.0068 -0.011,-0.01163 -0.0186,-0.01447 -0.008,-0.0028 -0.0168,-0.0035 -0.0279,-0.0031 z" />
          <path
             id="path36410"
             style="fill:#54301e;fill-opacity:1;stroke:none;stroke-width:1.351;stroke-linecap:round;stroke-linejoin:round;stroke-dasharray:none;stroke-opacity:1;paint-order:markers stroke fill"
             d="m 560.15857,-76.777743 -0.16846,0.422714 c -0.0353,0.08866 -0.0633,0.165744 -0.0858,0.240812 -0.0112,0.03753 -0.0214,0.0747 -0.03,0.112138 -0.009,0.03743 -0.0155,0.07519 -0.0217,0.114721 -0.0125,0.07906 -0.0211,0.164458 -0.0264,0.265101 -0.005,0.100642 -0.007,0.21676 -0.008,0.356567 -10e-4,0.183332 -0.005,0.349939 -0.0109,0.470772 -0.003,0.06042 -0.006,0.10929 -0.009,0.143144 -0.004,0.03385 -0.007,0.05271 -0.0114,0.05271 -0.008,0 -0.0605,-0.02982 -0.13952,-0.07803 -0.0791,-0.04821 -0.18437,-0.114958 -0.29663,-0.188102 -0.0519,-0.03383 -0.1045,-0.06548 -0.15709,-0.09457 -0.0526,-0.02909 -0.10552,-0.0557 -0.1571,-0.07958 -0.0516,-0.02389 -0.102,-0.04482 -0.15089,-0.06305 -0.0489,-0.01823 -0.096,-0.03336 -0.14056,-0.04547 -0.0446,-0.01212 -0.0865,-0.02132 -0.12506,-0.02687 -0.0385,-0.0056 -0.0736,-0.0077 -0.10439,-0.0062 -0.0308,0.0015 -0.0576,0.0066 -0.0791,0.0155 -0.0107,0.0045 -0.0198,0.01011 -0.0279,0.01654 -0.008,0.0064 -0.0149,0.01379 -0.0201,0.02222 -0.007,0.01164 -0.009,0.02203 -0.007,0.03101 0.002,0.009 0.009,0.01659 0.0202,0.02274 0.0114,0.0061 0.0274,0.0108 0.0475,0.01395 0.0202,0.0032 0.0447,0.0047 0.0734,0.0047 0.0317,0 0.0626,0.0034 0.093,0.01033 0.0304,0.0069 0.0605,0.01746 0.0889,0.03049 0.0284,0.01303 0.0555,0.02869 0.0811,0.04703 0.0256,0.01834 0.0498,0.03917 0.0718,0.06201 0.0221,0.02284 0.0417,0.04788 0.0594,0.07441 0.0177,0.02654 0.0334,0.05481 0.046,0.08423 0.0126,0.02943 0.0223,0.05996 0.0289,0.09147 0.007,0.03151 0.0103,0.06385 0.0103,0.09664 0,0.0243 -10e-4,0.0478 -0.004,0.07028 -0.002,0.02248 -0.006,0.0439 -0.0114,0.0646 -0.005,0.0207 -0.011,0.04047 -0.0186,0.05943 -0.008,0.01896 -0.0166,0.037 -0.0269,0.05426 -0.0103,0.01726 -0.0221,0.03401 -0.0351,0.04961 -0.0131,0.0156 -0.0275,0.02994 -0.0434,0.04393 -0.0159,0.01399 -0.0333,0.02738 -0.0522,0.03979 -0.0189,0.01241 -0.0396,0.02426 -0.0615,0.03514 -0.0219,0.01088 -0.0452,0.02059 -0.0703,0.02997 -0.025,0.0094 -0.0518,0.01842 -0.0801,0.02635 -0.0565,0.01587 -0.11932,0.02896 -0.18913,0.03927 -0.0698,0.01032 -0.1467,0.01764 -0.23048,0.02274 -0.0838,0.0051 -0.17443,0.0075 -0.27285,0.0078 -0.054,1.23e-4 -0.10572,-0.0017 -0.15451,-0.0062 -0.0488,-0.0045 -0.0947,-0.01143 -0.1385,-0.02067 -0.0438,-0.0092 -0.0851,-0.02106 -0.12402,-0.03514 -0.0389,-0.01408 -0.0758,-0.03059 -0.11007,-0.04961 -0.0343,-0.01902 -0.0663,-0.04052 -0.0961,-0.06459 -0.0298,-0.02407 -0.0571,-0.05087 -0.0827,-0.0801 -0.0256,-0.02923 -0.0488,-0.0606 -0.0703,-0.09508 -0.0215,-0.03449 -0.0413,-0.07177 -0.0589,-0.111622 l -0.10491,-0.238745 -0.16846,0.205156 c -0.0462,0.05635 -0.0937,0.111724 -0.13333,0.155546 -0.0397,0.04382 -0.0713,0.07616 -0.0853,0.0863 -0.007,0.0051 -0.0354,0.01223 -0.0801,0.02067 -0.0447,0.0084 -0.10621,0.01788 -0.17984,0.02842 -0.14725,0.02108 -0.34293,0.04534 -0.55242,0.06718 -0.15495,0.01615 -0.28211,0.03081 -0.38705,0.04548 -0.10494,0.01467 -0.18783,0.02928 -0.25528,0.04547 -0.0337,0.0081 -0.0637,0.01628 -0.0904,0.02532 -0.0267,0.009 -0.0501,0.01909 -0.0713,0.02946 -0.0212,0.01036 -0.0405,0.02101 -0.0579,0.03307 -0.0174,0.01206 -0.033,0.02514 -0.0481,0.03927 -0.022,0.02063 -0.0415,0.04151 -0.0584,0.06201 -0.0169,0.0205 -0.0311,0.04063 -0.0429,0.06098 -0.0118,0.02035 -0.0207,0.04082 -0.0274,0.06098 -0.007,0.02016 -0.0108,0.04 -0.0124,0.05994 -0.002,0.01994 -9.1e-4,0.03973 0.003,0.05943 0.004,0.0197 0.009,0.03948 0.0181,0.05891 0.009,0.01943 0.0199,0.03875 0.0336,0.05788 0.0137,0.01913 0.0298,0.03804 0.0486,0.05684 0.0146,0.01464 0.0347,0.02753 0.061,0.03824 0.0263,0.01071 0.0591,0.01911 0.0997,0.02584 0.0406,0.0067 0.089,0.01177 0.14677,0.01447 0.0577,0.0027 0.12448,0.0034 0.20205,0.0021 0.0776,-0.0014 0.166,-0.0048 0.26613,-0.01034 0.10014,-0.0055 0.21202,-0.01305 0.33745,-0.02274 0.25087,-0.01937 0.55502,-0.04736 0.92346,-0.08372 0.16992,-0.01677 0.48445,-0.03996 0.85369,-0.06356 0.36925,-0.0236 0.7936,-0.04762 1.18391,-0.06666 0.18357,-0.009 0.37406,-0.01541 0.57103,-0.01964 0.19696,-0.0042 0.40005,-0.0061 0.60874,-0.0057 0.2087,4.22e-4 0.42307,0.0033 0.64183,0.0083 0.21875,0.005 0.44205,0.01219 0.6692,0.0217 0.22716,0.0095 0.45807,0.02118 0.69195,0.03514 0.23388,0.01396 0.47058,0.03024 0.70952,0.04858 0.23894,0.01833 0.48011,0.03886 0.72244,0.06149 0.24232,0.02264 0.48613,0.04703 0.73018,0.0739 0.25408,0.02798 0.44598,0.04937 0.59377,0.06408 0.14779,0.0147 0.25144,0.02264 0.32918,0.02532 0.0389,0.0013 0.0711,0.0014 0.0992,0 0.0281,-0.0014 0.052,-0.0042 0.0739,-0.0083 0.022,-0.004 0.0422,-0.0095 0.0625,-0.01602 0.0201,-0.0065 0.0406,-0.01401 0.0636,-0.02274 h 5.2e-4 c 0.0276,-0.01054 0.0525,-0.02343 0.0744,-0.03772 0.022,-0.01437 0.0412,-0.03049 0.0574,-0.04806 0.0161,-0.01757 0.0292,-0.03666 0.0393,-0.05684 0.0101,-0.02018 0.0172,-0.04135 0.0212,-0.06356 0.004,-0.02221 0.005,-0.04508 0.003,-0.06873 -0.002,-0.02365 -0.007,-0.04785 -0.016,-0.07235 -0.009,-0.0245 -0.0201,-0.04965 -0.0351,-0.07441 -0.015,-0.02476 -0.0332,-0.04946 -0.0548,-0.0739 -0.0154,-0.01745 -0.0307,-0.03312 -0.047,-0.04754 -0.0163,-0.01443 -0.0338,-0.02725 -0.0532,-0.03927 -0.0195,-0.01202 -0.0413,-0.02335 -0.0662,-0.03359 -0.0248,-0.01024 -0.0528,-0.01986 -0.0853,-0.02894 -0.0325,-0.0091 -0.0693,-0.01729 -0.11162,-0.02584 -0.0423,-0.0085 -0.0898,-0.01721 -0.14418,-0.02584 -0.10871,-0.01726 -0.24361,-0.0355 -0.41393,-0.05684 l -0.78083,-0.09767 -0.2434,-0.275952 c -0.0597,-0.06763 -0.10496,-0.11842 -0.13901,-0.153996 -0.017,-0.01779 -0.0314,-0.03204 -0.0434,-0.04237 -0.012,-0.01034 -0.0217,-0.01689 -0.0295,-0.02015 -0.008,-0.0033 -0.0136,-0.0029 -0.0181,5.17e-4 -0.004,0.0034 -0.008,0.0099 -0.01,0.01964 -0.004,0.01953 -0.004,0.05147 -0.004,0.09405 -3e-5,0.03075 -0.005,0.06207 -0.0129,0.09405 -0.008,0.03198 -0.0199,0.06465 -0.0351,0.09664 -0.0152,0.03198 -0.0337,0.06328 -0.0548,0.09405 -0.0211,0.03077 -0.0449,0.06107 -0.0708,0.0894 -0.0259,0.02833 -0.0536,0.05491 -0.0832,0.07958 -0.0296,0.02467 -0.0609,0.04739 -0.093,0.06718 -0.0321,0.01979 -0.0652,0.03644 -0.0987,0.05013 -0.0335,0.01368 -0.0674,0.02414 -0.10129,0.03049 -0.039,0.0073 -0.0847,0.01139 -0.13487,0.01292 -0.0502,0.0015 -0.10509,4.6e-4 -0.16278,-0.0031 -0.0577,-0.0036 -0.11837,-0.0091 -0.17984,-0.01705 -0.0615,-0.0079 -0.12399,-0.01835 -0.18551,-0.02997 -0.0615,-0.01163 -0.12198,-0.02467 -0.17984,-0.03927 -0.0579,-0.01461 -0.11281,-0.03066 -0.1633,-0.04754 -0.0505,-0.01688 -0.0965,-0.03477 -0.1359,-0.05323 -0.0394,-0.01846 -0.0721,-0.03752 -0.0966,-0.05684 -0.02,-0.01576 -0.0383,-0.03242 -0.0548,-0.04961 -0.0164,-0.01719 -0.031,-0.03487 -0.0439,-0.05323 -0.0129,-0.01835 -0.0241,-0.03706 -0.0336,-0.05633 -0.009,-0.01927 -0.0171,-0.03899 -0.0233,-0.05891 -0.006,-0.01992 -0.0106,-0.04014 -0.0134,-0.06046 -0.003,-0.02033 -0.004,-0.04102 -0.004,-0.06149 3.6e-4,-0.02048 0.003,-0.04061 0.006,-0.06098 0.003,-0.02037 0.008,-0.04097 0.0145,-0.06098 0.006,-0.02001 0.0149,-0.03952 0.0243,-0.05891 0.009,-0.01939 0.0203,-0.03832 0.0326,-0.05684 0.0123,-0.01852 0.0258,-0.03687 0.0408,-0.05426 0.0151,-0.0174 0.0318,-0.03411 0.0496,-0.05013 0.0178,-0.01601 0.0365,-0.03109 0.0568,-0.04547 0.0204,-0.01438 0.0422,-0.02782 0.0651,-0.04031 0.0229,-0.01249 0.047,-0.02428 0.0724,-0.03462 0.0254,-0.01035 0.0518,-0.01944 0.0796,-0.02739 0.0386,-0.01107 0.0685,-0.0205 0.0899,-0.02894 0.0214,-0.0084 0.0345,-0.01589 0.0398,-0.02326 0.003,-0.0037 0.003,-0.0071 0.002,-0.01085 -0.001,-0.0037 -0.004,-0.0074 -0.009,-0.01137 -0.01,-0.0078 -0.0265,-0.01647 -0.0501,-0.02636 -0.0208,-0.0087 -0.042,-0.01531 -0.0641,-0.01964 -0.0221,-0.0043 -0.0454,-0.0061 -0.0698,-0.0057 -0.0243,4.19e-4 -0.0498,0.0032 -0.0775,0.0088 -0.0277,0.0055 -0.0572,0.01376 -0.0894,0.02481 -0.0322,0.01104 -0.0672,0.02494 -0.10491,0.04186 -0.0377,0.01691 -0.0781,0.03678 -0.12247,0.05994 -0.0887,0.04633 -0.19179,0.105226 -0.31367,0.178801 -0.11975,0.07228 -0.23369,0.138394 -0.3204,0.186035 -0.0433,0.02382 -0.0797,0.04298 -0.10697,0.05633 -0.0272,0.01335 -0.0453,0.02067 -0.0512,0.02067 -0.003,0 -0.006,-0.002 -0.008,-0.0057 -0.002,-0.0037 -0.004,-0.009 -0.006,-0.01602 -0.004,-0.01404 -0.006,-0.03438 -0.007,-0.05943 -10e-4,-0.02505 -0.002,-0.05481 -5.2e-4,-0.08785 10e-4,-0.03304 0.004,-0.06948 0.008,-0.107487 0.006,-0.056 0.009,-0.116086 0.01,-0.1788 10e-4,-0.06271 -1.8e-4,-0.128079 -0.004,-0.195337 -0.003,-0.06726 -0.009,-0.136039 -0.0165,-0.205673 -0.008,-0.06963 -0.0171,-0.139965 -0.0284,-0.209806 -0.0113,-0.06984 -0.024,-0.139342 -0.0388,-0.207222 -0.0147,-0.06788 -0.0313,-0.134169 -0.0491,-0.197921 -0.0178,-0.06375 -0.0369,-0.124961 -0.0574,-0.182418 -0.0205,-0.05746 -0.0423,-0.111204 -0.0651,-0.160197 z" />
        </g>
      </g>
    </g>
  </g>
</svg>
