<?xml version="1.0" encoding="UTF-8" standalone="no"?>
<svg
   width="2.6398437in"
   height="0.96350086in"
   viewBox="0 0 67.05203 24.472922"
   version="1.1"
   id="svg8"
   inkscape:version="1.2.2 (b0a8486541, 2022-12-01)"
   sodipodi:docname="logo-w-bt.svg"
   xmlns:inkscape="http://www.inkscape.org/namespaces/inkscape"
   xmlns:sodipodi="http://sodipodi.sourceforge.net/DTD/sodipodi-0.dtd"
   xmlns="http://www.w3.org/2000/svg"
   xmlns:svg="http://www.w3.org/2000/svg"
   xmlns:rdf="http://www.w3.org/1999/02/22-rdf-syntax-ns#"
   xmlns:cc="http://creativecommons.org/ns#"
   xmlns:dc="http://purl.org/dc/elements/1.1/">
  <defs
     id="defs2" />
  <sodipodi:namedview
     id="base"
     pagecolor="#ffffff"
     bordercolor="#666666"
     borderopacity="1.0"
     inkscape:pageopacity="0.0"
     inkscape:pageshadow="2"
     inkscape:zoom="1.979899"
     inkscape:cx="78.286822"
     inkscape:cy="57.578695"
     inkscape:document-units="mm"
     inkscape:current-layer="layer1"
     inkscape:document-rotation="0"
     showgrid="false"
     units="in"
     inkscape:showpageshadow="false"
     borderlayer="true"
     inkscape:window-width="1920"
     inkscape:window-height="978"
     inkscape:window-x="0"
     inkscape:window-y="0"
     inkscape:window-maximized="1"
     inkscape:pagecheckerboard="0"
     inkscape:deskcolor="#d1d1d1" />
  <metadata
     id="metadata5">
    <rdf:RDF>
      <cc:Work
         rdf:about="">
        <dc:format>image/svg+xml</dc:format>
        <dc:type
           rdf:resource="http://purl.org/dc/dcmitype/StillImage" />
      </cc:Work>
    </rdf:RDF>
  </metadata>
  <g
     inkscape:label="Layer 1"
     inkscape:groupmode="layer"
     id="layer1"
     transform="translate(-181.35868,-75.962482)">
    <g
       id="g136714"
       transform="translate(-134.10902,59.002908)">
      <g
         id="g36414"
         transform="matrix(0.54118537,0,0,0.54118537,32.361276,58.287021)"
         style="fill:#ffffff;fill-opacity:1">
        <g
           id="g36396"
           transform="matrix(1.650591,0,0,1.650591,-364.40106,50.363973)"
           style="fill:#ffffff;fill-opacity:1">
          <path
             id="path36390"
             style="fill:#ffffff;fill-opacity:1;stroke:none;stroke-width:1.351;stroke-linecap:round;stroke-linejoin:round;stroke-dasharray:none;stroke-opacity:1;paint-order:markers stroke fill"
             d="m 566.57834,-73.952075 0.0217,0.348299 c 0.005,0.07422 0.007,0.134619 0.005,0.186552 -8.2e-4,0.02597 -0.003,0.04964 -0.006,0.07183 -0.003,0.02219 -0.007,0.04293 -0.0119,0.06253 -0.005,0.0196 -0.0118,0.03812 -0.0196,0.05633 -0.008,0.01821 -0.017,0.03626 -0.0279,0.05426 -0.0218,0.03601 -0.0496,0.07287 -0.0853,0.115239 -0.0299,0.03555 -0.0607,0.06834 -0.0925,0.0987 -0.0318,0.03037 -0.0651,0.05794 -0.10025,0.08371 -0.0352,0.02577 -0.0726,0.04955 -0.11266,0.07131 -0.0401,0.02177 -0.0827,0.0416 -0.12919,0.05994 -0.0465,0.01835 -0.0966,0.03512 -0.15089,0.05064 -0.0543,0.01552 -0.11308,0.03013 -0.17674,0.04341 -0.0637,0.01328 -0.13221,0.02507 -0.2067,0.03669 -0.0745,0.01162 -0.15451,0.02303 -0.24133,0.03359 -0.15019,0.01826 -0.26422,0.03203 -0.35502,0.04754 -0.0454,0.0078 -0.0847,0.01615 -0.12041,0.02532 -0.0357,0.0092 -0.0677,0.01903 -0.0971,0.03101 -0.0294,0.01197 -0.0566,0.02568 -0.0832,0.04186 -0.0266,0.01618 -0.0529,0.03506 -0.0801,0.05684 -0.0545,0.04356 -0.11362,0.09979 -0.19121,0.17415 l -0.31574,0.302307 8.41034,0.03307 c 4.62562,0.01809 8.68854,0.03562 9.02839,0.03927 l 0.61753,0.0067 -0.74776,-0.05271 c -0.41139,-0.02917 -1.78673,-0.112897 -3.05666,-0.186035 -1.2699,-0.07314 -2.73331,-0.161617 -3.25199,-0.196371 -0.51871,-0.03475 -1.19198,-0.07853 -1.49604,-0.09715 -0.94758,-0.05802 -1.66325,-0.102063 -2.20968,-0.13746 -0.54644,-0.0354 -0.92391,-0.06201 -1.19424,-0.08578 -0.13517,-0.01188 -0.24373,-0.02307 -0.33332,-0.03411 -0.0896,-0.01104 -0.15998,-0.02202 -0.21962,-0.03359 -0.0596,-0.01157 -0.10815,-0.02373 -0.15348,-0.03721 -0.0453,-0.01347 -0.0877,-0.02821 -0.13436,-0.04496 -0.0755,-0.02712 -0.14131,-0.04841 -0.20205,-0.0646 -0.0607,-0.01618 -0.1163,-0.02722 -0.17209,-0.03359 -0.0558,-0.0064 -0.11144,-0.008 -0.17208,-0.0057 -0.0606,0.0023 -0.12622,0.0087 -0.20154,0.0186 -0.15688,0.02062 -0.27361,0.03598 -0.36173,0.04393 -0.0441,0.004 -0.0809,0.0065 -0.11214,0.0062 -0.0313,-2.73e-4 -0.0571,-0.003 -0.0785,-0.0083 -0.0214,-0.0052 -0.0387,-0.01338 -0.0532,-0.02429 -0.0145,-0.01091 -0.0262,-0.02455 -0.0367,-0.04186 -0.0105,-0.0173 -0.0195,-0.03811 -0.0289,-0.06253 -0.009,-0.02442 -0.0192,-0.05251 -0.0305,-0.08475 -0.0229,-0.06538 -0.0565,-0.143913 -0.092,-0.218075 -0.0355,-0.07416 -0.073,-0.144058 -0.10387,-0.191202 -0.0161,-0.02456 -0.037,-0.04985 -0.0615,-0.07596 -0.0245,-0.02611 -0.053,-0.05297 -0.0842,-0.07958 -0.0313,-0.02661 -0.0655,-0.05301 -0.10181,-0.07906 -0.0363,-0.02605 -0.0746,-0.05152 -0.1142,-0.07596 -0.0396,-0.02444 -0.0807,-0.04799 -0.12196,-0.06976 -0.0412,-0.02178 -0.0829,-0.04189 -0.12402,-0.05994 -0.0412,-0.01806 -0.0816,-0.03426 -0.12093,-0.04754 -0.0393,-0.01328 -0.0774,-0.02356 -0.11317,-0.03101 z" />
          <path
             id="path36392"
             style="fill:#ffffff;fill-opacity:1;stroke:none;stroke-width:1.351;stroke-linecap:round;stroke-linejoin:round;stroke-dasharray:none;stroke-opacity:1;paint-order:markers stroke fill"
             d="m 553.6954,-73.985148 c -0.0223,8.56e-4 -0.0518,0.0073 -0.0909,0.01705 -0.0692,0.01717 -0.13456,0.03638 -0.19585,0.05736 -0.0613,0.02099 -0.11864,0.04394 -0.1726,0.06925 -0.054,0.02531 -0.1042,0.05254 -0.15141,0.08268 -0.0472,0.03014 -0.0912,0.06323 -0.1323,0.0987 -0.041,0.03548 -0.0792,0.07341 -0.11472,0.114721 -0.0355,0.04131 -0.0682,0.08567 -0.0987,0.133326 -0.0305,0.04766 -0.0587,0.09897 -0.0847,0.153479 -0.0261,0.0545 -0.0501,0.112293 -0.0724,0.174149 -0.0257,0.07143 -0.0469,0.126831 -0.0661,0.168982 -0.01,0.02108 -0.0187,0.03883 -0.0279,0.05374 -0.009,0.01492 -0.0184,0.02664 -0.0279,0.03617 -0.01,0.0095 -0.0194,0.01678 -0.03,0.0217 -0.0106,0.0049 -0.0221,0.0077 -0.0346,0.0088 -0.0125,0.0011 -0.0257,4.17e-4 -0.0408,-0.0015 -0.0152,-0.002 -0.0321,-0.0051 -0.0506,-0.0093 -0.0648,-0.01485 -0.1268,-0.02775 -0.18604,-0.03876 -0.0592,-0.01101 -0.1158,-0.02024 -0.17053,-0.02739 -0.0547,-0.0072 -0.10733,-0.01222 -0.15865,-0.0155 -0.0513,-0.0033 -0.1014,-0.0047 -0.15038,-0.0041 -0.049,5.99e-4 -0.097,0.0033 -0.14469,0.0078 -0.0477,0.0045 -0.0951,0.01072 -0.14263,0.01912 -0.0476,0.0084 -0.0952,0.01868 -0.14366,0.03101 -0.0485,0.01232 -0.0978,0.02663 -0.14831,0.04289 -0.0426,0.0137 -0.0866,0.02641 -0.13436,0.03824 -0.0478,0.01184 -0.0992,0.02319 -0.15658,0.03359 -0.0574,0.0104 -0.1209,0.02006 -0.19223,0.02946 -0.0713,0.0094 -0.15064,0.01856 -0.2403,0.02739 -0.17933,0.01765 -0.39966,0.03425 -0.67851,0.05219 -0.27885,0.01794 -0.61608,0.03672 -1.0294,0.05839 -1.10893,0.05814 -3.02605,0.162732 -4.2602,0.232027 -1.23414,0.06929 -3.23927,0.177382 -4.45554,0.240296 l -2.21124,0.114205 7.60987,0.03307 c 4.18536,0.01812 8.4133,0.03985 9.39581,0.04857 l 1.78646,0.01602 -0.35295,-0.357601 c -0.0778,-0.07881 -0.14109,-0.140794 -0.19534,-0.189136 -0.0271,-0.02417 -0.0519,-0.04462 -0.0754,-0.06253 -0.0236,-0.01791 -0.0457,-0.03293 -0.0672,-0.04547 -0.0215,-0.01255 -0.0425,-0.02292 -0.0636,-0.03101 -0.021,-0.0081 -0.0425,-0.01407 -0.0646,-0.0186 -0.0221,-0.0045 -0.045,-0.0074 -0.0698,-0.0093 -0.0247,-0.0019 -0.0512,-0.003 -0.0801,-0.0031 -0.0361,-1.85e-4 -0.0829,-0.0028 -0.13694,-0.0078 -0.054,-0.0049 -0.11504,-0.012 -0.17932,-0.02067 -0.0643,-0.0087 -0.1317,-0.01913 -0.19843,-0.03049 -0.0667,-0.01136 -0.13286,-0.02367 -0.19431,-0.03669 -0.045,-0.0095 -0.0888,-0.02006 -0.13125,-0.03152 -0.0424,-0.01146 -0.0837,-0.02388 -0.12351,-0.03721 -0.0399,-0.01333 -0.078,-0.02724 -0.11524,-0.04238 -0.0372,-0.01513 -0.0735,-0.03119 -0.108,-0.04806 -0.0345,-0.01687 -0.0675,-0.03468 -0.0992,-0.05323 -0.0317,-0.01855 -0.0616,-0.03824 -0.0904,-0.05839 -0.0289,-0.02016 -0.0567,-0.04082 -0.0827,-0.06253 -0.0259,-0.0217 -0.0504,-0.04451 -0.0734,-0.0677 -0.023,-0.02318 -0.0441,-0.04671 -0.0641,-0.07131 -0.0199,-0.0246 -0.0385,-0.05001 -0.0553,-0.07596 -0.0168,-0.02595 -0.0323,-0.05234 -0.046,-0.07958 -0.0137,-0.02724 -0.0257,-0.05525 -0.0362,-0.08372 -0.0104,-0.02846 -0.0192,-0.05771 -0.0263,-0.08733 -0.007,-0.02962 -0.0122,-0.05972 -0.016,-0.09043 -0.004,-0.03071 -0.006,-0.06179 -0.007,-0.09353 -3.7e-4,-0.03174 10e-4,-0.06393 0.004,-0.09663 0.006,-0.05948 0.01,-0.104752 0.01,-0.138493 7e-5,-0.01687 -5.6e-4,-0.03088 -0.003,-0.04238 -0.002,-0.01149 -0.005,-0.02057 -0.01,-0.02739 -0.005,-0.0068 -0.011,-0.01163 -0.0186,-0.01447 -0.008,-0.0028 -0.0168,-0.0035 -0.0279,-0.0031 z" />
          <path
             id="path36394"
             style="fill:#ffffff;fill-opacity:1;stroke:none;stroke-width:1.351;stroke-linecap:round;stroke-linejoin:round;stroke-dasharray:none;stroke-opacity:1;paint-order:markers stroke fill"
             d="m 560.15857,-76.777743 -0.16846,0.422714 c -0.0353,0.08866 -0.0633,0.165744 -0.0858,0.240812 -0.0112,0.03753 -0.0214,0.0747 -0.03,0.112138 -0.009,0.03743 -0.0155,0.07519 -0.0217,0.114721 -0.0125,0.07906 -0.0211,0.164458 -0.0264,0.265101 -0.005,0.100642 -0.007,0.21676 -0.008,0.356567 -10e-4,0.183332 -0.005,0.349939 -0.0109,0.470772 -0.003,0.06042 -0.006,0.10929 -0.009,0.143144 -0.004,0.03385 -0.007,0.05271 -0.0114,0.05271 -0.008,0 -0.0605,-0.02982 -0.13952,-0.07803 -0.0791,-0.04821 -0.18437,-0.114958 -0.29663,-0.188102 -0.0519,-0.03383 -0.1045,-0.06548 -0.15709,-0.09457 -0.0526,-0.02909 -0.10552,-0.0557 -0.1571,-0.07958 -0.0516,-0.02389 -0.102,-0.04482 -0.15089,-0.06305 -0.0489,-0.01823 -0.096,-0.03336 -0.14056,-0.04547 -0.0446,-0.01212 -0.0865,-0.02132 -0.12506,-0.02687 -0.0385,-0.0056 -0.0736,-0.0077 -0.10439,-0.0062 -0.0308,0.0015 -0.0576,0.0066 -0.0791,0.0155 -0.0107,0.0045 -0.0198,0.01011 -0.0279,0.01654 -0.008,0.0064 -0.0149,0.01379 -0.0201,0.02222 -0.007,0.01164 -0.009,0.02203 -0.007,0.03101 0.002,0.009 0.009,0.01659 0.0202,0.02274 0.0114,0.0061 0.0274,0.0108 0.0475,0.01395 0.0202,0.0032 0.0447,0.0047 0.0734,0.0047 0.0317,0 0.0626,0.0034 0.093,0.01033 0.0304,0.0069 0.0605,0.01746 0.0889,0.03049 0.0284,0.01303 0.0555,0.02869 0.0811,0.04703 0.0256,0.01834 0.0498,0.03917 0.0718,0.06201 0.0221,0.02284 0.0417,0.04788 0.0594,0.07441 0.0177,0.02654 0.0334,0.05481 0.046,0.08423 0.0126,0.02943 0.0223,0.05996 0.0289,0.09147 0.007,0.03151 0.0103,0.06385 0.0103,0.09664 0,0.0243 -10e-4,0.0478 -0.004,0.07028 -0.002,0.02248 -0.006,0.0439 -0.0114,0.0646 -0.005,0.0207 -0.011,0.04047 -0.0186,0.05943 -0.008,0.01896 -0.0166,0.037 -0.0269,0.05426 -0.0103,0.01726 -0.0221,0.03401 -0.0351,0.04961 -0.0131,0.0156 -0.0275,0.02994 -0.0434,0.04393 -0.0159,0.01399 -0.0333,0.02738 -0.0522,0.03979 -0.0189,0.01241 -0.0396,0.02426 -0.0615,0.03514 -0.0219,0.01088 -0.0452,0.02059 -0.0703,0.02997 -0.025,0.0094 -0.0518,0.01842 -0.0801,0.02635 -0.0565,0.01587 -0.11932,0.02896 -0.18913,0.03927 -0.0698,0.01032 -0.1467,0.01764 -0.23048,0.02274 -0.0838,0.0051 -0.17443,0.0075 -0.27285,0.0078 -0.054,1.23e-4 -0.10572,-0.0017 -0.15451,-0.0062 -0.0488,-0.0045 -0.0947,-0.01143 -0.1385,-0.02067 -0.0438,-0.0092 -0.0851,-0.02106 -0.12402,-0.03514 -0.0389,-0.01408 -0.0758,-0.03059 -0.11007,-0.04961 -0.0343,-0.01902 -0.0663,-0.04052 -0.0961,-0.06459 -0.0298,-0.02407 -0.0571,-0.05087 -0.0827,-0.0801 -0.0256,-0.02923 -0.0488,-0.0606 -0.0703,-0.09508 -0.0215,-0.03449 -0.0413,-0.07177 -0.0589,-0.111622 l -0.10491,-0.238745 -0.16846,0.205156 c -0.0462,0.05635 -0.0937,0.111724 -0.13333,0.155546 -0.0397,0.04382 -0.0713,0.07616 -0.0853,0.0863 -0.007,0.0051 -0.0354,0.01223 -0.0801,0.02067 -0.0447,0.0084 -0.10621,0.01788 -0.17984,0.02842 -0.14725,0.02108 -0.34293,0.04534 -0.55242,0.06718 -0.15495,0.01615 -0.28211,0.03081 -0.38705,0.04548 -0.10494,0.01467 -0.18783,0.02928 -0.25528,0.04547 -0.0337,0.0081 -0.0637,0.01628 -0.0904,0.02532 -0.0267,0.009 -0.0501,0.01909 -0.0713,0.02946 -0.0212,0.01036 -0.0405,0.02101 -0.0579,0.03307 -0.0174,0.01206 -0.033,0.02514 -0.0481,0.03927 -0.022,0.02063 -0.0415,0.04151 -0.0584,0.06201 -0.0169,0.0205 -0.0311,0.04063 -0.0429,0.06098 -0.0118,0.02035 -0.0207,0.04082 -0.0274,0.06098 -0.007,0.02016 -0.0108,0.04 -0.0124,0.05994 -0.002,0.01994 -9.1e-4,0.03973 0.003,0.05943 0.004,0.0197 0.009,0.03948 0.0181,0.05891 0.009,0.01943 0.0199,0.03875 0.0336,0.05788 0.0137,0.01913 0.0298,0.03804 0.0486,0.05684 0.0146,0.01464 0.0347,0.02753 0.061,0.03824 0.0263,0.01071 0.0591,0.01911 0.0997,0.02584 0.0406,0.0067 0.089,0.01177 0.14677,0.01447 0.0577,0.0027 0.12448,0.0034 0.20205,0.0021 0.0776,-0.0014 0.166,-0.0048 0.26613,-0.01034 0.10014,-0.0055 0.21202,-0.01305 0.33745,-0.02274 0.25087,-0.01937 0.55502,-0.04736 0.92346,-0.08372 0.16992,-0.01677 0.48445,-0.03996 0.85369,-0.06356 0.36925,-0.0236 0.7936,-0.04762 1.18391,-0.06666 0.18357,-0.009 0.37406,-0.01541 0.57103,-0.01964 0.19696,-0.0042 0.40005,-0.0061 0.60874,-0.0057 0.2087,4.22e-4 0.42307,0.0033 0.64183,0.0083 0.21875,0.005 0.44205,0.01219 0.6692,0.0217 0.22716,0.0095 0.45807,0.02118 0.69195,0.03514 0.23388,0.01396 0.47058,0.03024 0.70952,0.04858 0.23894,0.01833 0.48011,0.03886 0.72244,0.06149 0.24232,0.02264 0.48613,0.04703 0.73018,0.0739 0.25408,0.02798 0.44598,0.04937 0.59377,0.06408 0.14779,0.0147 0.25144,0.02264 0.32918,0.02532 0.0389,0.0013 0.0711,0.0014 0.0992,0 0.0281,-0.0014 0.052,-0.0042 0.0739,-0.0083 0.022,-0.004 0.0422,-0.0095 0.0625,-0.01602 0.0201,-0.0065 0.0406,-0.01401 0.0636,-0.02274 h 5.2e-4 c 0.0276,-0.01054 0.0525,-0.02343 0.0744,-0.03772 0.022,-0.01437 0.0412,-0.03049 0.0574,-0.04806 0.0161,-0.01757 0.0292,-0.03666 0.0393,-0.05684 0.0101,-0.02018 0.0172,-0.04135 0.0212,-0.06356 0.004,-0.02221 0.005,-0.04508 0.003,-0.06873 -0.002,-0.02365 -0.007,-0.04785 -0.016,-0.07235 -0.009,-0.0245 -0.0201,-0.04965 -0.0351,-0.07441 -0.015,-0.02476 -0.0332,-0.04946 -0.0548,-0.0739 -0.0154,-0.01745 -0.0307,-0.03312 -0.047,-0.04754 -0.0163,-0.01443 -0.0338,-0.02725 -0.0532,-0.03927 -0.0195,-0.01202 -0.0413,-0.02335 -0.0662,-0.03359 -0.0248,-0.01024 -0.0528,-0.01986 -0.0853,-0.02894 -0.0325,-0.0091 -0.0693,-0.01729 -0.11162,-0.02584 -0.0423,-0.0085 -0.0898,-0.01721 -0.14418,-0.02584 -0.10871,-0.01726 -0.24361,-0.0355 -0.41393,-0.05684 l -0.78083,-0.09767 -0.2434,-0.275952 c -0.0597,-0.06763 -0.10496,-0.11842 -0.13901,-0.153996 -0.017,-0.01779 -0.0314,-0.03204 -0.0434,-0.04237 -0.012,-0.01034 -0.0217,-0.01689 -0.0295,-0.02015 -0.008,-0.0033 -0.0136,-0.0029 -0.0181,5.17e-4 -0.004,0.0034 -0.008,0.0099 -0.01,0.01964 -0.004,0.01953 -0.004,0.05147 -0.004,0.09405 -3e-5,0.03075 -0.005,0.06207 -0.0129,0.09405 -0.008,0.03198 -0.0199,0.06465 -0.0351,0.09664 -0.0152,0.03198 -0.0337,0.06328 -0.0548,0.09405 -0.0211,0.03077 -0.0449,0.06107 -0.0708,0.0894 -0.0259,0.02833 -0.0536,0.05491 -0.0832,0.07958 -0.0296,0.02467 -0.0609,0.04739 -0.093,0.06718 -0.0321,0.01979 -0.0652,0.03644 -0.0987,0.05013 -0.0335,0.01368 -0.0674,0.02414 -0.10129,0.03049 -0.039,0.0073 -0.0847,0.01139 -0.13487,0.01292 -0.0502,0.0015 -0.10509,4.6e-4 -0.16278,-0.0031 -0.0577,-0.0036 -0.11837,-0.0091 -0.17984,-0.01705 -0.0615,-0.0079 -0.12399,-0.01835 -0.18551,-0.02997 -0.0615,-0.01163 -0.12198,-0.02467 -0.17984,-0.03927 -0.0579,-0.01461 -0.11281,-0.03066 -0.1633,-0.04754 -0.0505,-0.01688 -0.0965,-0.03477 -0.1359,-0.05323 -0.0394,-0.01846 -0.0721,-0.03752 -0.0966,-0.05684 -0.02,-0.01576 -0.0383,-0.03242 -0.0548,-0.04961 -0.0164,-0.01719 -0.031,-0.03487 -0.0439,-0.05323 -0.0129,-0.01835 -0.0241,-0.03706 -0.0336,-0.05633 -0.009,-0.01927 -0.0171,-0.03899 -0.0233,-0.05891 -0.006,-0.01992 -0.0106,-0.04014 -0.0134,-0.06046 -0.003,-0.02033 -0.004,-0.04102 -0.004,-0.06149 3.6e-4,-0.02048 0.003,-0.04061 0.006,-0.06098 0.003,-0.02037 0.008,-0.04097 0.0145,-0.06098 0.006,-0.02001 0.0149,-0.03952 0.0243,-0.05891 0.009,-0.01939 0.0203,-0.03832 0.0326,-0.05684 0.0123,-0.01852 0.0258,-0.03687 0.0408,-0.05426 0.0151,-0.0174 0.0318,-0.03411 0.0496,-0.05013 0.0178,-0.01601 0.0365,-0.03109 0.0568,-0.04547 0.0204,-0.01438 0.0422,-0.02782 0.0651,-0.04031 0.0229,-0.01249 0.047,-0.02428 0.0724,-0.03462 0.0254,-0.01035 0.0518,-0.01944 0.0796,-0.02739 0.0386,-0.01107 0.0685,-0.0205 0.0899,-0.02894 0.0214,-0.0084 0.0345,-0.01589 0.0398,-0.02326 0.003,-0.0037 0.003,-0.0071 0.002,-0.01085 -0.001,-0.0037 -0.004,-0.0074 -0.009,-0.01137 -0.01,-0.0078 -0.0265,-0.01647 -0.0501,-0.02636 -0.0208,-0.0087 -0.042,-0.01531 -0.0641,-0.01964 -0.0221,-0.0043 -0.0454,-0.0061 -0.0698,-0.0057 -0.0243,4.19e-4 -0.0498,0.0032 -0.0775,0.0088 -0.0277,0.0055 -0.0572,0.01376 -0.0894,0.02481 -0.0322,0.01104 -0.0672,0.02494 -0.10491,0.04186 -0.0377,0.01691 -0.0781,0.03678 -0.12247,0.05994 -0.0887,0.04633 -0.19179,0.105226 -0.31367,0.178801 -0.11975,0.07228 -0.23369,0.138394 -0.3204,0.186035 -0.0433,0.02382 -0.0797,0.04298 -0.10697,0.05633 -0.0272,0.01335 -0.0453,0.02067 -0.0512,0.02067 -0.003,0 -0.006,-0.002 -0.008,-0.0057 -0.002,-0.0037 -0.004,-0.009 -0.006,-0.01602 -0.004,-0.01404 -0.006,-0.03438 -0.007,-0.05943 -10e-4,-0.02505 -0.002,-0.05481 -5.2e-4,-0.08785 10e-4,-0.03304 0.004,-0.06948 0.008,-0.107487 0.006,-0.056 0.009,-0.116086 0.01,-0.1788 10e-4,-0.06271 -1.8e-4,-0.128079 -0.004,-0.195337 -0.003,-0.06726 -0.009,-0.136039 -0.0165,-0.205673 -0.008,-0.06963 -0.0171,-0.139965 -0.0284,-0.209806 -0.0113,-0.06984 -0.024,-0.139342 -0.0388,-0.207222 -0.0147,-0.06788 -0.0313,-0.134169 -0.0491,-0.197921 -0.0178,-0.06375 -0.0369,-0.124961 -0.0574,-0.182418 -0.0205,-0.05746 -0.0423,-0.111204 -0.0651,-0.160197 z" />
        </g>
        <text
           xml:space="preserve"
           style="font-style:normal;font-variant:normal;font-weight:normal;font-stretch:normal;font-size:12.4783px;line-height:0.4;font-family:Gilroy-Regular;-inkscape-font-specification:Gilroy-Regular;fill:#ffffff;fill-opacity:1;stroke:none;stroke-width:0.196509;stroke-linecap:round;stroke-linejoin:round;paint-order:markers stroke fill"
           x="531.32825"
           y="-56.896904"
           id="text36400"><tspan
             sodipodi:role="line"
             style="font-style:normal;font-variant:normal;font-weight:normal;font-stretch:normal;font-family:ROADSTORE;-inkscape-font-specification:ROADSTORE;fill:#ffffff;fill-opacity:1;stroke-width:0.196509"
             x="531.32825"
             y="-56.896904"
             id="tspan36398">birrieria</tspan></text>
        <text
           xml:space="preserve"
           style="font-style:normal;font-variant:normal;font-weight:normal;font-stretch:normal;font-size:16.5983px;line-height:0.4;font-family:Impact;-inkscape-font-specification:Impact;text-align:center;text-anchor:middle;fill:#ffffff;fill-opacity:1;stroke:none;stroke-width:3.53141;stroke-linecap:round;stroke-linejoin:round;stroke-dasharray:none;stroke-opacity:1;paint-order:markers stroke fill"
           x="559.68579"
           y="-42.020248"
           id="text36404"><tspan
             sodipodi:role="line"
             id="tspan36402"
             style="font-style:normal;font-variant:normal;font-weight:normal;font-stretch:normal;font-family:Impact;-inkscape-font-specification:Impact;text-align:center;text-anchor:middle;fill:#ffffff;fill-opacity:1;stroke-width:3.53141"
             x="559.68579"
             y="-42.020248">EL TORITO</tspan></text>
        <g
           id="g36412"
           transform="matrix(1.650591,0,0,-1.650591,-364.40106,-157.87237)"
           style="fill:#ffffff;fill-opacity:1">
          <path
             id="path36406"
             style="fill:#ffffff;fill-opacity:1;stroke:none;stroke-width:1.351;stroke-linecap:round;stroke-linejoin:round;stroke-dasharray:none;stroke-opacity:1;paint-order:markers stroke fill"
             d="m 566.57834,-73.952075 0.0217,0.348299 c 0.005,0.07422 0.007,0.134619 0.005,0.186552 -8.2e-4,0.02597 -0.003,0.04964 -0.006,0.07183 -0.003,0.02219 -0.007,0.04293 -0.0119,0.06253 -0.005,0.0196 -0.0118,0.03812 -0.0196,0.05633 -0.008,0.01821 -0.017,0.03626 -0.0279,0.05426 -0.0218,0.03601 -0.0496,0.07287 -0.0853,0.115239 -0.0299,0.03555 -0.0607,0.06834 -0.0925,0.0987 -0.0318,0.03037 -0.0651,0.05794 -0.10025,0.08371 -0.0352,0.02577 -0.0726,0.04955 -0.11266,0.07131 -0.0401,0.02177 -0.0827,0.0416 -0.12919,0.05994 -0.0465,0.01835 -0.0966,0.03512 -0.15089,0.05064 -0.0543,0.01552 -0.11308,0.03013 -0.17674,0.04341 -0.0637,0.01328 -0.13221,0.02507 -0.2067,0.03669 -0.0745,0.01162 -0.15451,0.02303 -0.24133,0.03359 -0.15019,0.01826 -0.26422,0.03203 -0.35502,0.04754 -0.0454,0.0078 -0.0847,0.01615 -0.12041,0.02532 -0.0357,0.0092 -0.0677,0.01903 -0.0971,0.03101 -0.0294,0.01197 -0.0566,0.02568 -0.0832,0.04186 -0.0266,0.01618 -0.0529,0.03506 -0.0801,0.05684 -0.0545,0.04356 -0.11362,0.09979 -0.19121,0.17415 l -0.31574,0.302307 8.41034,0.03307 c 4.62562,0.01809 8.68854,0.03562 9.02839,0.03927 l 0.61753,0.0067 -0.74776,-0.05271 c -0.41139,-0.02917 -1.78673,-0.112897 -3.05666,-0.186035 -1.2699,-0.07314 -2.73331,-0.161617 -3.25199,-0.196371 -0.51871,-0.03475 -1.19198,-0.07853 -1.49604,-0.09715 -0.94758,-0.05802 -1.66325,-0.102063 -2.20968,-0.13746 -0.54644,-0.0354 -0.92391,-0.06201 -1.19424,-0.08578 -0.13517,-0.01188 -0.24373,-0.02307 -0.33332,-0.03411 -0.0896,-0.01104 -0.15998,-0.02202 -0.21962,-0.03359 -0.0596,-0.01157 -0.10815,-0.02373 -0.15348,-0.03721 -0.0453,-0.01347 -0.0877,-0.02821 -0.13436,-0.04496 -0.0755,-0.02712 -0.14131,-0.04841 -0.20205,-0.0646 -0.0607,-0.01618 -0.1163,-0.02722 -0.17209,-0.03359 -0.0558,-0.0064 -0.11144,-0.008 -0.17208,-0.0057 -0.0606,0.0023 -0.12622,0.0087 -0.20154,0.0186 -0.15688,0.02062 -0.27361,0.03598 -0.36173,0.04393 -0.0441,0.004 -0.0809,0.0065 -0.11214,0.0062 -0.0313,-2.73e-4 -0.0571,-0.003 -0.0785,-0.0083 -0.0214,-0.0052 -0.0387,-0.01338 -0.0532,-0.02429 -0.0145,-0.01091 -0.0262,-0.02455 -0.0367,-0.04186 -0.0105,-0.0173 -0.0195,-0.03811 -0.0289,-0.06253 -0.009,-0.02442 -0.0192,-0.05251 -0.0305,-0.08475 -0.0229,-0.06538 -0.0565,-0.143913 -0.092,-0.218075 -0.0355,-0.07416 -0.073,-0.144058 -0.10387,-0.191202 -0.0161,-0.02456 -0.037,-0.04985 -0.0615,-0.07596 -0.0245,-0.02611 -0.053,-0.05297 -0.0842,-0.07958 -0.0313,-0.02661 -0.0655,-0.05301 -0.10181,-0.07906 -0.0363,-0.02605 -0.0746,-0.05152 -0.1142,-0.07596 -0.0396,-0.02444 -0.0807,-0.04799 -0.12196,-0.06976 -0.0412,-0.02178 -0.0829,-0.04189 -0.12402,-0.05994 -0.0412,-0.01806 -0.0816,-0.03426 -0.12093,-0.04754 -0.0393,-0.01328 -0.0774,-0.02356 -0.11317,-0.03101 z" />
          <path
             id="path36408"
             style="fill:#ffffff;fill-opacity:1;stroke:none;stroke-width:1.351;stroke-linecap:round;stroke-linejoin:round;stroke-dasharray:none;stroke-opacity:1;paint-order:markers stroke fill"
             d="m 553.6954,-73.985148 c -0.0223,8.56e-4 -0.0518,0.0073 -0.0909,0.01705 -0.0692,0.01717 -0.13456,0.03638 -0.19585,0.05736 -0.0613,0.02099 -0.11864,0.04394 -0.1726,0.06925 -0.054,0.02531 -0.1042,0.05254 -0.15141,0.08268 -0.0472,0.03014 -0.0912,0.06323 -0.1323,0.0987 -0.041,0.03548 -0.0792,0.07341 -0.11472,0.114721 -0.0355,0.04131 -0.0682,0.08567 -0.0987,0.133326 -0.0305,0.04766 -0.0587,0.09897 -0.0847,0.153479 -0.0261,0.0545 -0.0501,0.112293 -0.0724,0.174149 -0.0257,0.07143 -0.0469,0.126831 -0.0661,0.168982 -0.01,0.02108 -0.0187,0.03883 -0.0279,0.05374 -0.009,0.01492 -0.0184,0.02664 -0.0279,0.03617 -0.01,0.0095 -0.0194,0.01678 -0.03,0.0217 -0.0106,0.0049 -0.0221,0.0077 -0.0346,0.0088 -0.0125,0.0011 -0.0257,4.17e-4 -0.0408,-0.0015 -0.0152,-0.002 -0.0321,-0.0051 -0.0506,-0.0093 -0.0648,-0.01485 -0.1268,-0.02775 -0.18604,-0.03876 -0.0592,-0.01101 -0.1158,-0.02024 -0.17053,-0.02739 -0.0547,-0.0072 -0.10733,-0.01222 -0.15865,-0.0155 -0.0513,-0.0033 -0.1014,-0.0047 -0.15038,-0.0041 -0.049,5.99e-4 -0.097,0.0033 -0.14469,0.0078 -0.0477,0.0045 -0.0951,0.01072 -0.14263,0.01912 -0.0476,0.0084 -0.0952,0.01868 -0.14366,0.03101 -0.0485,0.01232 -0.0978,0.02663 -0.14831,0.04289 -0.0426,0.0137 -0.0866,0.02641 -0.13436,0.03824 -0.0478,0.01184 -0.0992,0.02319 -0.15658,0.03359 -0.0574,0.0104 -0.1209,0.02006 -0.19223,0.02946 -0.0713,0.0094 -0.15064,0.01856 -0.2403,0.02739 -0.17933,0.01765 -0.39966,0.03425 -0.67851,0.05219 -0.27885,0.01794 -0.61608,0.03672 -1.0294,0.05839 -1.10893,0.05814 -3.02605,0.162732 -4.2602,0.232027 -1.23414,0.06929 -3.23927,0.177382 -4.45554,0.240296 l -2.21124,0.114205 7.60987,0.03307 c 4.18536,0.01812 8.4133,0.03985 9.39581,0.04857 l 1.78646,0.01602 -0.35295,-0.357601 c -0.0778,-0.07881 -0.14109,-0.140794 -0.19534,-0.189136 -0.0271,-0.02417 -0.0519,-0.04462 -0.0754,-0.06253 -0.0236,-0.01791 -0.0457,-0.03293 -0.0672,-0.04547 -0.0215,-0.01255 -0.0425,-0.02292 -0.0636,-0.03101 -0.021,-0.0081 -0.0425,-0.01407 -0.0646,-0.0186 -0.0221,-0.0045 -0.045,-0.0074 -0.0698,-0.0093 -0.0247,-0.0019 -0.0512,-0.003 -0.0801,-0.0031 -0.0361,-1.85e-4 -0.0829,-0.0028 -0.13694,-0.0078 -0.054,-0.0049 -0.11504,-0.012 -0.17932,-0.02067 -0.0643,-0.0087 -0.1317,-0.01913 -0.19843,-0.03049 -0.0667,-0.01136 -0.13286,-0.02367 -0.19431,-0.03669 -0.045,-0.0095 -0.0888,-0.02006 -0.13125,-0.03152 -0.0424,-0.01146 -0.0837,-0.02388 -0.12351,-0.03721 -0.0399,-0.01333 -0.078,-0.02724 -0.11524,-0.04238 -0.0372,-0.01513 -0.0735,-0.03119 -0.108,-0.04806 -0.0345,-0.01687 -0.0675,-0.03468 -0.0992,-0.05323 -0.0317,-0.01855 -0.0616,-0.03824 -0.0904,-0.05839 -0.0289,-0.02016 -0.0567,-0.04082 -0.0827,-0.06253 -0.0259,-0.0217 -0.0504,-0.04451 -0.0734,-0.0677 -0.023,-0.02318 -0.0441,-0.04671 -0.0641,-0.07131 -0.0199,-0.0246 -0.0385,-0.05001 -0.0553,-0.07596 -0.0168,-0.02595 -0.0323,-0.05234 -0.046,-0.07958 -0.0137,-0.02724 -0.0257,-0.05525 -0.0362,-0.08372 -0.0104,-0.02846 -0.0192,-0.05771 -0.0263,-0.08733 -0.007,-0.02962 -0.0122,-0.05972 -0.016,-0.09043 -0.004,-0.03071 -0.006,-0.06179 -0.007,-0.09353 -3.7e-4,-0.03174 10e-4,-0.06393 0.004,-0.09663 0.006,-0.05948 0.01,-0.104752 0.01,-0.138493 7e-5,-0.01687 -5.6e-4,-0.03088 -0.003,-0.04238 -0.002,-0.01149 -0.005,-0.02057 -0.01,-0.02739 -0.005,-0.0068 -0.011,-0.01163 -0.0186,-0.01447 -0.008,-0.0028 -0.0168,-0.0035 -0.0279,-0.0031 z" />
          <path
             id="path36410"
             style="fill:#ffffff;fill-opacity:1;stroke:none;stroke-width:1.351;stroke-linecap:round;stroke-linejoin:round;stroke-dasharray:none;stroke-opacity:1;paint-order:markers stroke fill"
             d="m 560.15857,-76.777743 -0.16846,0.422714 c -0.0353,0.08866 -0.0633,0.165744 -0.0858,0.240812 -0.0112,0.03753 -0.0214,0.0747 -0.03,0.112138 -0.009,0.03743 -0.0155,0.07519 -0.0217,0.114721 -0.0125,0.07906 -0.0211,0.164458 -0.0264,0.265101 -0.005,0.100642 -0.007,0.21676 -0.008,0.356567 -10e-4,0.183332 -0.005,0.349939 -0.0109,0.470772 -0.003,0.06042 -0.006,0.10929 -0.009,0.143144 -0.004,0.03385 -0.007,0.05271 -0.0114,0.05271 -0.008,0 -0.0605,-0.02982 -0.13952,-0.07803 -0.0791,-0.04821 -0.18437,-0.114958 -0.29663,-0.188102 -0.0519,-0.03383 -0.1045,-0.06548 -0.15709,-0.09457 -0.0526,-0.02909 -0.10552,-0.0557 -0.1571,-0.07958 -0.0516,-0.02389 -0.102,-0.04482 -0.15089,-0.06305 -0.0489,-0.01823 -0.096,-0.03336 -0.14056,-0.04547 -0.0446,-0.01212 -0.0865,-0.02132 -0.12506,-0.02687 -0.0385,-0.0056 -0.0736,-0.0077 -0.10439,-0.0062 -0.0308,0.0015 -0.0576,0.0066 -0.0791,0.0155 -0.0107,0.0045 -0.0198,0.01011 -0.0279,0.01654 -0.008,0.0064 -0.0149,0.01379 -0.0201,0.02222 -0.007,0.01164 -0.009,0.02203 -0.007,0.03101 0.002,0.009 0.009,0.01659 0.0202,0.02274 0.0114,0.0061 0.0274,0.0108 0.0475,0.01395 0.0202,0.0032 0.0447,0.0047 0.0734,0.0047 0.0317,0 0.0626,0.0034 0.093,0.01033 0.0304,0.0069 0.0605,0.01746 0.0889,0.03049 0.0284,0.01303 0.0555,0.02869 0.0811,0.04703 0.0256,0.01834 0.0498,0.03917 0.0718,0.06201 0.0221,0.02284 0.0417,0.04788 0.0594,0.07441 0.0177,0.02654 0.0334,0.05481 0.046,0.08423 0.0126,0.02943 0.0223,0.05996 0.0289,0.09147 0.007,0.03151 0.0103,0.06385 0.0103,0.09664 0,0.0243 -10e-4,0.0478 -0.004,0.07028 -0.002,0.02248 -0.006,0.0439 -0.0114,0.0646 -0.005,0.0207 -0.011,0.04047 -0.0186,0.05943 -0.008,0.01896 -0.0166,0.037 -0.0269,0.05426 -0.0103,0.01726 -0.0221,0.03401 -0.0351,0.04961 -0.0131,0.0156 -0.0275,0.02994 -0.0434,0.04393 -0.0159,0.01399 -0.0333,0.02738 -0.0522,0.03979 -0.0189,0.01241 -0.0396,0.02426 -0.0615,0.03514 -0.0219,0.01088 -0.0452,0.02059 -0.0703,0.02997 -0.025,0.0094 -0.0518,0.01842 -0.0801,0.02635 -0.0565,0.01587 -0.11932,0.02896 -0.18913,0.03927 -0.0698,0.01032 -0.1467,0.01764 -0.23048,0.02274 -0.0838,0.0051 -0.17443,0.0075 -0.27285,0.0078 -0.054,1.23e-4 -0.10572,-0.0017 -0.15451,-0.0062 -0.0488,-0.0045 -0.0947,-0.01143 -0.1385,-0.02067 -0.0438,-0.0092 -0.0851,-0.02106 -0.12402,-0.03514 -0.0389,-0.01408 -0.0758,-0.03059 -0.11007,-0.04961 -0.0343,-0.01902 -0.0663,-0.04052 -0.0961,-0.06459 -0.0298,-0.02407 -0.0571,-0.05087 -0.0827,-0.0801 -0.0256,-0.02923 -0.0488,-0.0606 -0.0703,-0.09508 -0.0215,-0.03449 -0.0413,-0.07177 -0.0589,-0.111622 l -0.10491,-0.238745 -0.16846,0.205156 c -0.0462,0.05635 -0.0937,0.111724 -0.13333,0.155546 -0.0397,0.04382 -0.0713,0.07616 -0.0853,0.0863 -0.007,0.0051 -0.0354,0.01223 -0.0801,0.02067 -0.0447,0.0084 -0.10621,0.01788 -0.17984,0.02842 -0.14725,0.02108 -0.34293,0.04534 -0.55242,0.06718 -0.15495,0.01615 -0.28211,0.03081 -0.38705,0.04548 -0.10494,0.01467 -0.18783,0.02928 -0.25528,0.04547 -0.0337,0.0081 -0.0637,0.01628 -0.0904,0.02532 -0.0267,0.009 -0.0501,0.01909 -0.0713,0.02946 -0.0212,0.01036 -0.0405,0.02101 -0.0579,0.03307 -0.0174,0.01206 -0.033,0.02514 -0.0481,0.03927 -0.022,0.02063 -0.0415,0.04151 -0.0584,0.06201 -0.0169,0.0205 -0.0311,0.04063 -0.0429,0.06098 -0.0118,0.02035 -0.0207,0.04082 -0.0274,0.06098 -0.007,0.02016 -0.0108,0.04 -0.0124,0.05994 -0.002,0.01994 -9.1e-4,0.03973 0.003,0.05943 0.004,0.0197 0.009,0.03948 0.0181,0.05891 0.009,0.01943 0.0199,0.03875 0.0336,0.05788 0.0137,0.01913 0.0298,0.03804 0.0486,0.05684 0.0146,0.01464 0.0347,0.02753 0.061,0.03824 0.0263,0.01071 0.0591,0.01911 0.0997,0.02584 0.0406,0.0067 0.089,0.01177 0.14677,0.01447 0.0577,0.0027 0.12448,0.0034 0.20205,0.0021 0.0776,-0.0014 0.166,-0.0048 0.26613,-0.01034 0.10014,-0.0055 0.21202,-0.01305 0.33745,-0.02274 0.25087,-0.01937 0.55502,-0.04736 0.92346,-0.08372 0.16992,-0.01677 0.48445,-0.03996 0.85369,-0.06356 0.36925,-0.0236 0.7936,-0.04762 1.18391,-0.06666 0.18357,-0.009 0.37406,-0.01541 0.57103,-0.01964 0.19696,-0.0042 0.40005,-0.0061 0.60874,-0.0057 0.2087,4.22e-4 0.42307,0.0033 0.64183,0.0083 0.21875,0.005 0.44205,0.01219 0.6692,0.0217 0.22716,0.0095 0.45807,0.02118 0.69195,0.03514 0.23388,0.01396 0.47058,0.03024 0.70952,0.04858 0.23894,0.01833 0.48011,0.03886 0.72244,0.06149 0.24232,0.02264 0.48613,0.04703 0.73018,0.0739 0.25408,0.02798 0.44598,0.04937 0.59377,0.06408 0.14779,0.0147 0.25144,0.02264 0.32918,0.02532 0.0389,0.0013 0.0711,0.0014 0.0992,0 0.0281,-0.0014 0.052,-0.0042 0.0739,-0.0083 0.022,-0.004 0.0422,-0.0095 0.0625,-0.01602 0.0201,-0.0065 0.0406,-0.01401 0.0636,-0.02274 h 5.2e-4 c 0.0276,-0.01054 0.0525,-0.02343 0.0744,-0.03772 0.022,-0.01437 0.0412,-0.03049 0.0574,-0.04806 0.0161,-0.01757 0.0292,-0.03666 0.0393,-0.05684 0.0101,-0.02018 0.0172,-0.04135 0.0212,-0.06356 0.004,-0.02221 0.005,-0.04508 0.003,-0.06873 -0.002,-0.02365 -0.007,-0.04785 -0.016,-0.07235 -0.009,-0.0245 -0.0201,-0.04965 -0.0351,-0.07441 -0.015,-0.02476 -0.0332,-0.04946 -0.0548,-0.0739 -0.0154,-0.01745 -0.0307,-0.03312 -0.047,-0.04754 -0.0163,-0.01443 -0.0338,-0.02725 -0.0532,-0.03927 -0.0195,-0.01202 -0.0413,-0.02335 -0.0662,-0.03359 -0.0248,-0.01024 -0.0528,-0.01986 -0.0853,-0.02894 -0.0325,-0.0091 -0.0693,-0.01729 -0.11162,-0.02584 -0.0423,-0.0085 -0.0898,-0.01721 -0.14418,-0.02584 -0.10871,-0.01726 -0.24361,-0.0355 -0.41393,-0.05684 l -0.78083,-0.09767 -0.2434,-0.275952 c -0.0597,-0.06763 -0.10496,-0.11842 -0.13901,-0.153996 -0.017,-0.01779 -0.0314,-0.03204 -0.0434,-0.04237 -0.012,-0.01034 -0.0217,-0.01689 -0.0295,-0.02015 -0.008,-0.0033 -0.0136,-0.0029 -0.0181,5.17e-4 -0.004,0.0034 -0.008,0.0099 -0.01,0.01964 -0.004,0.01953 -0.004,0.05147 -0.004,0.09405 -3e-5,0.03075 -0.005,0.06207 -0.0129,0.09405 -0.008,0.03198 -0.0199,0.06465 -0.0351,0.09664 -0.0152,0.03198 -0.0337,0.06328 -0.0548,0.09405 -0.0211,0.03077 -0.0449,0.06107 -0.0708,0.0894 -0.0259,0.02833 -0.0536,0.05491 -0.0832,0.07958 -0.0296,0.02467 -0.0609,0.04739 -0.093,0.06718 -0.0321,0.01979 -0.0652,0.03644 -0.0987,0.05013 -0.0335,0.01368 -0.0674,0.02414 -0.10129,0.03049 -0.039,0.0073 -0.0847,0.01139 -0.13487,0.01292 -0.0502,0.0015 -0.10509,4.6e-4 -0.16278,-0.0031 -0.0577,-0.0036 -0.11837,-0.0091 -0.17984,-0.01705 -0.0615,-0.0079 -0.12399,-0.01835 -0.18551,-0.02997 -0.0615,-0.01163 -0.12198,-0.02467 -0.17984,-0.03927 -0.0579,-0.01461 -0.11281,-0.03066 -0.1633,-0.04754 -0.0505,-0.01688 -0.0965,-0.03477 -0.1359,-0.05323 -0.0394,-0.01846 -0.0721,-0.03752 -0.0966,-0.05684 -0.02,-0.01576 -0.0383,-0.03242 -0.0548,-0.04961 -0.0164,-0.01719 -0.031,-0.03487 -0.0439,-0.05323 -0.0129,-0.01835 -0.0241,-0.03706 -0.0336,-0.05633 -0.009,-0.01927 -0.0171,-0.03899 -0.0233,-0.05891 -0.006,-0.01992 -0.0106,-0.04014 -0.0134,-0.06046 -0.003,-0.02033 -0.004,-0.04102 -0.004,-0.06149 3.6e-4,-0.02048 0.003,-0.04061 0.006,-0.06098 0.003,-0.02037 0.008,-0.04097 0.0145,-0.06098 0.006,-0.02001 0.0149,-0.03952 0.0243,-0.05891 0.009,-0.01939 0.0203,-0.03832 0.0326,-0.05684 0.0123,-0.01852 0.0258,-0.03687 0.0408,-0.05426 0.0151,-0.0174 0.0318,-0.03411 0.0496,-0.05013 0.0178,-0.01601 0.0365,-0.03109 0.0568,-0.04547 0.0204,-0.01438 0.0422,-0.02782 0.0651,-0.04031 0.0229,-0.01249 0.047,-0.02428 0.0724,-0.03462 0.0254,-0.01035 0.0518,-0.01944 0.0796,-0.02739 0.0386,-0.01107 0.0685,-0.0205 0.0899,-0.02894 0.0214,-0.0084 0.0345,-0.01589 0.0398,-0.02326 0.003,-0.0037 0.003,-0.0071 0.002,-0.01085 -0.001,-0.0037 -0.004,-0.0074 -0.009,-0.01137 -0.01,-0.0078 -0.0265,-0.01647 -0.0501,-0.02636 -0.0208,-0.0087 -0.042,-0.01531 -0.0641,-0.01964 -0.0221,-0.0043 -0.0454,-0.0061 -0.0698,-0.0057 -0.0243,4.19e-4 -0.0498,0.0032 -0.0775,0.0088 -0.0277,0.0055 -0.0572,0.01376 -0.0894,0.02481 -0.0322,0.01104 -0.0672,0.02494 -0.10491,0.04186 -0.0377,0.01691 -0.0781,0.03678 -0.12247,0.05994 -0.0887,0.04633 -0.19179,0.105226 -0.31367,0.178801 -0.11975,0.07228 -0.23369,0.138394 -0.3204,0.186035 -0.0433,0.02382 -0.0797,0.04298 -0.10697,0.05633 -0.0272,0.01335 -0.0453,0.02067 -0.0512,0.02067 -0.003,0 -0.006,-0.002 -0.008,-0.0057 -0.002,-0.0037 -0.004,-0.009 -0.006,-0.01602 -0.004,-0.01404 -0.006,-0.03438 -0.007,-0.05943 -10e-4,-0.02505 -0.002,-0.05481 -5.2e-4,-0.08785 10e-4,-0.03304 0.004,-0.06948 0.008,-0.107487 0.006,-0.056 0.009,-0.116086 0.01,-0.1788 10e-4,-0.06271 -1.8e-4,-0.128079 -0.004,-0.195337 -0.003,-0.06726 -0.009,-0.136039 -0.0165,-0.205673 -0.008,-0.06963 -0.0171,-0.139965 -0.0284,-0.209806 -0.0113,-0.06984 -0.024,-0.139342 -0.0388,-0.207222 -0.0147,-0.06788 -0.0313,-0.134169 -0.0491,-0.197921 -0.0178,-0.06375 -0.0369,-0.124961 -0.0574,-0.182418 -0.0205,-0.05746 -0.0423,-0.111204 -0.0651,-0.160197 z" />
        </g>
      </g>
      <g
         id="g130581"
         transform="matrix(0.66184197,0,0,0.66184197,143.52193,-22.410049)">
        <path
           style="fill:#ffffff;fill-opacity:1;stroke-width:0.268336"
           d="m 333.22723,93.774404 c -4.94548,-1.06217 -9.58351,-4.930699 -11.2493,-9.382954 -2.89625,-7.740881 0.37436,-16.008448 8.03733,-20.317197 2.3856,-1.341345 5.64543,-2.504708 6.30707,-2.250817 0.75975,0.291538 0.37552,0.706646 -1.55214,1.676868 -1.98956,1.001378 -4.47455,2.771412 -5.43382,3.870455 l -0.53668,0.614863 0.53668,-0.218569 c 0.29516,-0.120197 1.74419,-0.254335 3.22002,-0.29807 1.73486,-0.05141 3.58444,-0.31092 5.23259,-0.7342 1.40205,-0.360078 3.4371,-0.731431 4.52233,-0.825224 1.59136,-0.137538 2.06833,-0.286469 2.46529,-0.769831 0.69725,-0.849015 1.46501,-0.353778 1.46501,0.945001 0,1.563593 0.61485,1.97791 3.22781,2.175067 1.2502,0.09432 3.29482,0.248608 4.54362,0.342847 l 2.27051,0.17135 0.90613,-0.909272 c 0.64624,-0.648512 0.95929,-1.255563 1.09155,-2.116792 0.43582,-2.838012 1.00907,-3.578664 2.09143,-2.702203 0.50346,0.407655 0.62475,0.817407 0.71506,2.415665 0.1436,2.540714 -0.38778,3.928621 -2.08982,5.458909 -1.54482,1.38893 -2.58062,1.754524 -5.77955,2.039965 -2.31707,0.206764 -2.37965,0.229178 -1.54293,0.552886 0.54322,0.210147 0.8721,0.522552 0.8721,0.828349 0,0.545601 -1.19367,1.603248 -1.80946,1.603248 -0.40761,0 -0.39894,0.101112 0.20766,2.419153 0.23075,0.881816 0.94646,2.080819 2.54395,4.26187 0.75306,1.028135 0.88127,2.467916 0.26534,2.979119 -0.22138,0.183725 -0.40253,0.756094 -0.40253,1.271943 0,1.280056 -1.59582,2.903459 -3.09914,3.152676 -0.58302,0.09666 -1.31667,0.300117 -1.63029,0.452153 -0.63877,0.309641 -1.28533,0.06308 -2.05002,-0.781939 -0.37785,-0.417511 -0.75396,-0.499404 -1.96086,-0.426932 -0.82135,0.04928 -1.69639,0.198307 -1.94451,0.331101 -0.24816,0.132769 -1.05493,0.331915 -1.79285,0.442512 -1.02218,0.153194 -1.56529,0.42465 -2.2807,1.139927 -0.88198,0.881795 -0.90644,0.952017 -0.40252,1.155657 0.29509,0.119271 1.74403,0.205671 3.2199,0.192057 2.22211,-0.02055 2.69754,0.04665 2.76572,0.390998 0.0949,0.480522 -0.24412,0.607651 -2.63156,0.986103 -2.38486,0.37804 -6.21474,0.31509 -8.31846,-0.136736 z m 7.64762,-0.37235 c 0.94864,-0.196209 0.82393,-0.228697 -1.07335,-0.27962 -1.18068,-0.03164 -2.42487,-0.136107 -2.76489,-0.232109 -0.59693,-0.168508 -0.57386,-0.223151 0.67083,-1.588825 1.17396,-1.28806 1.48071,-1.465583 3.43576,-1.988449 1.18068,-0.315768 2.9816,-0.645337 4.00205,-0.732374 1.58632,-0.135306 1.7931,-0.20959 1.42591,-0.512297 -0.31736,-0.26165 -0.56803,-0.279846 -0.96067,-0.06979 -0.36672,0.196271 -0.97144,0.20081 -1.95315,0.01449 -1.66621,-0.315991 -2.26188,-0.73915 -1.36909,-0.972617 0.32951,-0.08621 0.59914,-0.263334 0.59914,-0.393707 0,-0.130385 0.25441,-0.237047 0.56538,-0.237047 0.39233,0 0.51811,0.123222 0.41094,0.402512 -0.10505,0.273779 0.0153,0.402509 0.37378,0.402509 0.65463,0 0.68508,-0.496444 0.0588,-0.956753 -0.43617,-0.320505 -0.41229,-0.40527 0.33541,-1.190506 l 0.80504,-0.845436 -0.73795,0.183746 c -0.5753,0.143258 -0.73793,0.08864 -0.73793,-0.247845 0,-0.561496 -0.44137,-0.554246 -0.75853,0.0124 -0.26547,0.474404 -0.32413,0.447113 -1.67575,-0.779487 -0.28457,-0.258283 -0.63817,-0.469599 -0.78576,-0.469599 -0.37483,0 -0.3362,-0.731391 0.0511,-0.970853 0.17584,-0.108642 0.36697,-0.05538 0.42488,0.118333 0.1537,0.461322 0.85553,0.385917 1.04679,-0.112482 0.11875,-0.309703 0.37659,-0.385877 0.93076,-0.275047 0.55429,0.110852 0.76637,0.04816 0.76637,-0.226682 0,-0.454347 0.44015,-0.771299 0.77971,-0.561456 0.41712,0.257818 -0.32748,1.497197 -0.80888,1.346337 -0.60077,-0.188266 -1.23481,0.598532 -0.81814,1.015222 0.23532,0.235283 0.31064,0.199998 0.31064,-0.145527 0,-0.526334 0.43841,-0.616741 0.60258,-0.124266 0.0608,0.182544 0.44925,-0.179683 0.86304,-0.80501 0.78043,-1.179299 1.37508,-1.518706 1.09065,-0.622507 -0.13234,0.41677 -0.0593,0.487245 0.38442,0.371212 0.66673,-0.174344 0.69711,0.193748 0.10962,1.329642 -0.30047,0.581036 -0.34327,0.878519 -0.13635,0.947504 0.48701,0.162348 -0.14627,1.080881 -0.81289,1.178952 -0.87599,0.12888 -0.94726,0.756667 -0.0858,0.756667 0.49267,0 0.76242,-0.168623 0.85866,-0.536679 0.16058,-0.613646 0.61443,-0.728522 0.61443,-0.155482 0,0.209652 0.37045,0.462539 0.82316,0.561971 0.45271,0.0994 0.88536,0.342906 0.96139,0.541049 0.076,0.198157 0.30627,0.295787 0.51165,0.216973 0.31833,-0.122147 0.31788,-0.198798 -0.003,-0.519729 -0.20704,-0.207042 -0.49176,-0.376437 -0.63267,-0.376437 -0.4168,0 -0.56745,-1.049755 -0.27224,-1.896662 0.15085,-0.432694 0.42347,-0.786717 0.60581,-0.786717 0.18231,0 0.33152,-0.181114 0.33152,-0.402502 0,-0.221375 -0.10074,-0.402509 -0.22362,-0.402509 -0.12294,0 -0.22361,-0.168202 -0.22361,-0.373799 0,-0.45321 -0.65563,-0.740024 -1.20752,-0.52825 -0.25486,0.09778 -0.4025,-0.004 -0.4025,-0.276762 0,-0.237169 -0.19397,-0.431213 -0.43122,-0.431213 -0.2674,0 -0.37421,-0.148502 -0.28118,-0.390978 0.12173,-0.316783 0.0217,-0.342238 -0.52544,-0.134162 -0.82342,0.313058 -1.1772,0.325796 -1.1772,0.04239 0,-0.117938 0.42263,-0.36726 0.93918,-0.554041 0.51655,-0.186798 0.93919,-0.456799 0.93919,-0.600026 0,-0.16233 -0.19546,-0.155789 -0.51903,0.01735 -0.95507,0.511131 -3.49878,0.252451 -3.51327,-0.357277 -0.004,-0.167269 -0.49864,-0.606009 -1.09927,-0.974968 -0.60065,-0.368964 -1.28097,-1.033104 -1.5119,-1.475858 -0.23089,-0.442753 -0.46856,-0.660765 -0.52813,-0.484468 -0.0595,0.176309 0.0193,0.560808 0.17754,0.854453 0.41309,0.771839 0.37233,0.837538 -0.51927,0.837538 -0.44273,0 -0.80501,-0.127868 -0.80501,-0.284177 0,-0.156301 -0.11481,-0.213293 -0.25487,-0.126648 -0.14017,0.08662 -0.38536,-0.0863 -0.54483,-0.384246 -0.44465,-0.830843 0.73632,-2.910437 1.21394,-2.137635 0.10073,0.162844 0.0486,0.430472 -0.11554,0.594721 -0.1642,0.164254 -0.29727,0.425412 -0.29566,0.580378 0.003,0.154949 0.31229,-0.11068 0.69031,-0.590349 0.83294,-1.056832 1.65497,-1.123233 3.32218,-0.268332 1.31754,0.675601 2.34157,2.2039 1.86305,2.780476 -0.20211,0.243417 -0.13139,0.413566 0.2583,0.622113 1.19014,0.636932 2.10294,0.0059 1.79069,-1.238416 -0.14303,-0.570073 -0.23575,-0.64338 -0.42836,-0.3389 -0.18366,0.290362 -0.24683,0.202098 -0.2499,-0.349418 -0.003,-0.405858 -0.0959,-0.737932 -0.2079,-0.737932 -0.11208,0 -0.20274,-0.39244 -0.20123,-0.87209 0.003,-0.667923 -0.12295,-0.890618 -0.53408,-0.951197 -0.29518,-0.0435 -0.83857,-0.324409 -1.20753,-0.624222 l -0.67083,-0.545118 0.71342,0.112741 c 0.52212,0.08245 0.67567,0.01431 0.57262,-0.254187 -0.17868,-0.465714 -1.88917,-0.381191 -2.07477,0.10252 -0.0735,0.19152 -0.31223,0.348193 -0.5306,0.348193 -0.67687,0 0.0599,-1.569398 0.9538,-2.031644 0.7804,-0.403554 1.45306,-0.30384 1.15908,0.171825 -0.0849,0.137405 0.18823,0.249796 0.60676,0.249796 1.06908,0 1.85782,0.637913 2.24059,1.812108 0.18022,0.552986 0.40417,1.065813 0.49752,1.139604 0.0933,0.07384 0.40333,0.66338 0.68877,1.31021 0.55979,1.268453 0.61342,3.166416 0.11579,4.096305 -0.2268,0.423797 -0.22379,0.514192 0.0134,0.36824 0.17354,-0.107333 0.48219,0.02761 0.69309,0.303041 0.33505,0.437622 0.36767,0.229787 0.27506,-1.753379 -0.0577,-1.23742 -0.23305,-2.328932 -0.38942,-2.425574 -0.15656,-0.09666 -0.30103,-0.593624 -0.32141,-1.104368 -0.0652,-1.633156 -0.28087,-2.404498 -0.67224,-2.404498 -0.22603,0 -0.38116,-0.26863 -0.38116,-0.659981 0,-0.374622 -0.31789,-0.954748 -0.73519,-1.341692 -0.824,-0.764029 -1.27877,-0.885406 -1.04614,-0.279194 0.2066,0.538281 -0.6018,0.529171 -1.37949,-0.01544 -0.32828,-0.229926 -0.70708,-0.349924 -0.8418,-0.266659 -0.13464,0.08326 -0.2918,0.01086 -0.34907,-0.160976 -0.0683,-0.204729 -0.52345,-0.06664 -1.32111,0.400839 -0.66934,0.392257 -1.39914,0.713196 -1.62174,0.713196 -0.22265,0 -0.75542,0.167783 -1.18397,0.372867 -0.42853,0.205094 -1.36027,0.432611 -2.07052,0.505613 -1.05234,0.108148 -1.26376,0.06076 -1.14214,-0.256254 0.10419,-0.270809 0.007,-0.350472 -0.31863,-0.26221 -1.62714,0.440867 -1.94375,0.447785 -1.94375,0.04249 0,-0.306252 -0.17298,-0.369295 -0.67083,-0.244357 -0.60572,0.152032 -0.67087,0.08895 -0.67087,-0.649902 0,-0.450044 0.12072,-0.89289 0.26836,-0.984097 0.1476,-0.09129 0.26833,-0.285108 0.26833,-0.430879 0,-0.336263 -1.19237,0.543961 -1.58947,1.173365 -0.21065,0.334004 -0.22266,0.949191 -0.0405,2.081317 0.25856,1.605511 -0.13464,3.744951 -0.64811,3.52628 -0.32744,-0.139445 -0.66518,0.548678 -0.66971,1.364613 -0.003,0.405856 -0.13407,0.737921 -0.29298,0.737921 -0.16305,0 -0.26861,-0.437847 -0.24232,-1.006266 0.0757,-1.638147 0.0371,-1.719599 -0.54218,-1.140436 -0.5232,0.523212 -0.75338,1.878369 -0.31904,1.878369 0.29294,0 0.96261,2.665934 0.72849,2.900061 -0.10172,0.101742 -0.36908,-0.05628 -0.59405,-0.351284 -0.37426,-0.490627 -0.39557,-0.364996 -0.25074,1.476282 0.0872,1.106884 0.23663,2.42035 0.33232,2.918804 0.234,1.218941 -0.41145,1.025959 -0.8416,-0.251632 -0.17087,-0.50764 -0.40154,-0.884759 -0.51252,-0.838034 -0.11085,0.04676 -0.35383,-0.123011 -0.53969,-0.377207 -0.21279,-0.291051 -0.54557,-0.407867 -0.8987,-0.315524 -0.44536,0.116468 -0.62253,-0.02678 -0.86079,-0.696138 -0.48928,-1.374407 -0.6267,-4.218567 -0.28363,-5.870152 0.28101,-1.352956 0.42937,-1.591047 1.22726,-1.969673 0.4992,-0.236885 1.22167,-0.842415 1.60547,-1.345635 0.4592,-0.602022 0.92266,-0.914951 1.35506,-0.914951 0.36147,0 0.65719,-0.104025 0.65719,-0.231133 0,-0.127123 -0.30801,-0.172227 -0.68444,-0.100297 -0.6322,0.120851 -0.6702,0.07394 -0.49755,-0.613908 0.13254,-0.527987 0.0974,-0.689446 -0.12048,-0.554721 -0.16916,0.104507 -0.30745,0.364033 -0.30745,0.576698 0,0.212671 -0.18405,0.386668 -0.40915,0.386668 -0.22505,0 -0.52524,0.305352 -0.66713,0.678553 -0.36469,0.959188 -1.60711,2.271669 -1.60711,1.69773 0,-0.607012 2.12363,-4.791318 2.43171,-4.791318 0.13846,0 0.25168,-0.158114 0.25168,-0.351404 0,-0.619507 3.29422,-3.67974 5.16547,-4.798561 1.94649,-1.163781 2.24518,-1.441282 1.07337,-0.997181 -1.97529,0.748605 -5.13469,2.682306 -6.65252,4.071643 -3.27921,3.00162 -4.95676,6.575832 -5.1623,10.998897 -0.1058,2.277775 -0.0315,2.904625 0.5729,4.83007 2.0982,6.68418 7.73908,10.556379 15.46823,10.618194 1.10687,0.0091 2.49552,-0.08378 3.08585,-0.205906 z m -2.75057,-6.254234 c 0.16915,-0.507741 1.00639,-0.579932 1.00639,-0.08672 0,0.248923 -0.22944,0.422177 -0.55903,0.422177 -0.32791,0 -0.51287,-0.138682 -0.44736,-0.335413 z m -1.14031,-0.33542 c 0,-0.221377 -0.18118,-0.402502 -0.40248,-0.402502 -0.43266,0 -0.55581,-0.678623 -0.16688,-0.919037 0.27114,-0.167593 1.91094,0.591871 1.91094,0.88502 0,0.317868 -0.61669,0.839031 -0.99284,0.839031 -0.19183,0 -0.34884,-0.181133 -0.34884,-0.402512 z m 2.80216,-0.246397 c -0.28625,-0.209313 -0.43059,-0.470431 -0.32076,-0.580268 0.28283,-0.282816 1.60877,0.370037 1.40878,0.693634 -0.22391,0.362317 -0.47298,0.336364 -1.08802,-0.113359 z m -14.1529,-1.685723 c -0.49563,-0.933195 -0.59432,-1.690428 -0.22032,-1.690428 0.34137,0 0.90336,1.481666 0.78075,2.058383 -0.0839,0.39438 -0.19397,0.322077 -0.56043,-0.367955 z m 15.10746,0.05376 c 0,-0.221377 0.12073,-0.402502 0.26835,-0.402502 0.14742,0 0.26832,0.181115 0.26832,0.402502 0,0.221376 -0.12073,0.402509 -0.26832,0.402509 -0.14742,0 -0.26835,-0.181133 -0.26835,-0.402509 z m -2.01254,-0.670846 c -0.10702,-0.173295 -0.0738,-0.435848 0.0735,-0.583432 0.17888,-0.178883 0.33325,-0.163303 0.46306,0.04676 0.10703,0.173294 0.0739,0.435845 -0.0736,0.583429 -0.1789,0.178883 -0.33325,0.163303 -0.46309,-0.04676 z m 0.93919,-0.536669 c 0,-0.295177 0.12073,-0.536676 0.26832,-0.536676 0.14761,0 0.26835,0.241499 0.26835,0.536676 0,0.29517 -0.12073,0.536669 -0.26835,0.536669 -0.14742,0 -0.26832,-0.241499 -0.26832,-0.536669 z m 6.97677,0.0039 c 0,-0.145262 0.35872,-0.658461 0.79716,-1.140433 0.60957,-0.670146 0.79898,-0.765844 0.805,-0.40674 0.004,0.258271 -0.0935,0.46959 -0.2174,0.46959 -0.12396,0 -0.36283,0.301871 -0.53093,0.670843 -0.30072,0.660025 -0.85383,0.923501 -0.85383,0.40674 z m -14.13829,-0.8986 c -0.11974,-0.202931 -0.47524,-0.504 -0.78995,-0.66902 -0.4002,-0.209888 -0.62689,-0.665154 -0.75433,-1.515034 -0.10876,-0.724615 -0.32302,-1.214987 -0.53107,-1.214987 -0.23567,0 -0.30335,0.23943 -0.20872,0.737933 0.12587,0.66248 0.0946,0.700266 -0.30557,0.36964 -0.5332,-0.440511 -0.59095,-1.798509 -0.0893,-2.100504 0.1961,-0.118024 0.641,-1.33037 0.98881,-2.694108 0.34783,-1.363729 0.71728,-2.616912 0.82107,-2.784828 0.31533,-0.510218 0.79803,0.02212 0.62937,0.694069 -0.0869,0.346172 -0.0269,0.874251 0.13311,1.173507 0.18459,0.345037 0.20359,0.774413 0.0518,1.173619 -0.229,0.602344 0.40004,3.906164 0.80646,4.235685 0.42409,0.34383 0.52639,1.350784 0.15181,1.494507 -0.22172,0.08509 -0.33593,0.362157 -0.26347,0.639242 0.15829,0.604993 -0.3425,0.964918 -0.64032,0.460269 z m -0.57106,-1.310472 c -0.19246,-0.192548 -0.31754,-0.208391 -0.31754,-0.04028 0,0.358173 0.31735,0.675512 0.49644,0.496427 0.0763,-0.07629 -0.004,-0.28153 -0.17909,-0.456171 z m 0.52866,-1.28091 c -0.53226,-1.606344 -1.12286,-1.788562 -1.09566,-0.338058 0.0134,0.707304 0.0769,0.859014 0.21388,0.510651 0.15866,-0.402906 0.24756,-0.427994 0.47613,-0.134162 0.15466,0.198799 0.35647,0.572752 0.44852,0.831027 0.0921,0.258282 0.21995,0.469587 0.28411,0.469587 0.0643,0 -0.0827,-0.602569 -0.327,-1.339041 z m 3.89442,2.501838 c -0.36161,-0.361607 -0.18136,-0.952798 0.24117,-0.79068 0.31812,0.122073 0.38057,0.03682 0.2574,-0.351213 -0.17716,-0.558524 0.25199,-1.007515 0.53124,-0.555675 0.17717,0.286795 -0.40966,1.876463 -0.6928,1.876463 -0.0869,0 -0.23862,-0.08052 -0.33701,-0.178883 z m 2.91462,-0.34544 c -0.24417,-0.395098 0.14437,-1.622366 0.51343,-1.622366 0.57818,0 0.639,0.28104 0.23569,1.089457 -0.4285,0.85899 -0.51123,0.917822 -0.74912,0.532909 z m -9.92948,-0.269948 c -0.0997,-0.16132 -0.37093,-0.259915 -0.60278,-0.219104 -0.23182,0.04075 -0.47431,-0.07678 -0.53879,-0.261215 -0.0644,-0.18449 0.0738,-0.335422 0.30758,-0.335422 0.23368,0 0.42485,-0.120753 0.42485,-0.268345 0,-0.557093 0.53364,-0.239815 0.69798,0.415005 0.18479,0.73609 0.007,1.147779 -0.28884,0.669081 z m 13.18664,-1.262978 c -0.30876,-0.308748 -0.19548,-0.626118 0.22359,-0.626118 0.22139,0 0.40252,0.181131 0.40252,0.402509 0,0.419023 -0.31736,0.53237 -0.62611,0.223609 z m -4.97973,-0.939067 c -0.18862,-0.495543 -0.13254,-0.676789 0.26867,-0.868489 0.27891,-0.133246 0.50709,-0.404935 0.50709,-0.603759 0,-0.509648 0.37443,-0.448867 0.91509,0.148541 0.30213,0.333873 0.36285,0.571039 0.17583,0.686677 -0.15714,0.09715 -0.28758,0.07892 -0.28978,-0.04046 -0.003,-0.119407 -0.15315,0.07525 -0.33544,0.43256 -0.45586,0.89349 -0.95683,0.992322 -1.24138,0.244916 z m -4.95694,-3.576402 c 0.0845,-0.220526 0.26394,-0.332938 0.39845,-0.249795 0.28136,0.173905 0.0556,0.650766 -0.30824,0.650766 -0.13425,0 -0.17489,-0.180429 -0.0904,-0.400971 z m 1.4898,-1.675561 c 0.0494,-0.256578 0.32996,-0.508928 0.62342,-0.560784 0.2935,-0.05183 0.72728,-0.340869 0.96398,-0.642267 0.78838,-1.003812 1.09128,-0.400989 0.33362,0.663909 -0.48851,0.686566 -0.92105,1.005648 -1.36321,1.005648 -0.47074,0 -0.62313,-0.12743 -0.55781,-0.466506 z m 8.87171,-0.144459 c -0.65128,-0.297788 -0.81412,-0.736069 -0.26833,-0.722185 0.47037,0.01197 1.35291,0.718034 1.08942,0.871592 -0.11938,0.06968 -0.48902,0.0021 -0.82109,-0.149399 z m -4.62881,-0.947984 c 0,-0.144098 0.19117,-0.335371 0.42493,-0.425056 0.26134,-0.100298 0.384,-0.04028 0.31864,0.155788 -0.13387,0.401121 -0.74357,0.62197 -0.74357,0.269275 z m 12.31117,15.751891 0.85276,-0.297267 -0.58544,-0.507744 c -0.73818,-0.640216 -0.73434,-0.640825 -1.03997,0.163092 -0.31955,0.84046 -0.89718,0.896514 -0.69143,0.06703 0.0823,-0.332065 0.0818,-0.456648 -9.4e-4,-0.276832 -0.0832,0.179816 -0.57702,0.4068 -1.09744,0.504426 -0.66519,0.124798 -0.83869,0.245637 -0.58422,0.406902 0.50976,0.323051 2.13783,0.292187 3.14715,-0.05964 z m 2.09402,-2.436413 c -0.0857,-0.214064 -0.14934,-0.150486 -0.16211,0.162119 -0.0111,0.282868 0.0518,0.441354 0.14094,0.3522 0.089,-0.08913 0.0986,-0.320617 0.0213,-0.514317 z m -0.71999,-1.023041 c 0,-0.147588 -0.21237,-0.268336 -0.4721,-0.268336 -0.25969,0 -0.62299,-0.241508 -0.8073,-0.536678 -0.43031,-0.689028 -1.03333,-0.688471 -1.21368,0.001 -0.10332,0.395372 0.0134,0.570266 0.43829,0.660399 2.19754,0.46543 2.05479,0.455451 2.05479,0.143544 z m -9.06623,-9.391799 c -0.0921,-0.627426 -0.25459,-0.805012 -0.7366,-0.805012 -0.34012,0 -0.82006,-0.07738 -1.06649,-0.171959 -0.35362,-0.135688 -0.42895,-0.03671 -0.35737,0.469588 0.0647,0.456791 0.36116,0.733765 1.02988,0.961803 1.28758,0.439094 1.26315,0.448903 1.13058,-0.454435 z m 8.66371,-1.715214 c 0.69465,-0.536404 0.43607,-0.540957 -0.62621,-0.01111 -0.46353,0.231254 -0.96508,0.344883 -1.11455,0.2525 -0.15028,-0.09289 -0.27175,0.08214 -0.27175,0.391447 0,0.525666 0.0445,0.535949 0.73791,0.170472 0.40588,-0.213914 0.97945,-0.575442 1.2746,-0.803368 z m -1.98071,-2.242765 c 0.0171,-0.258274 0.0134,-0.62053 -0.0111,-0.805013 -0.05,-0.384317 0.94428,-0.460571 1.1733,-0.08995 0.0836,0.134982 0,0.306579 -0.18538,0.381325 -0.18536,0.07474 0.18024,0.145432 0.81281,0.157104 1.06919,0.0197 1.12972,-0.0164 0.86265,-0.51549 -0.31285,-0.584551 -0.80503,-0.72318 -0.80503,-0.226745 0,0.17934 -0.21851,0.112161 -0.51865,-0.15945 -0.37643,-0.340687 -0.7443,-0.419813 -1.34169,-0.288606 -0.64739,0.142191 -0.823,0.09036 -0.823,-0.243063 0,-0.544883 -0.43101,-0.549588 -0.63923,-0.0071 -0.0892,0.232128 0.0766,0.670754 0.37379,0.989776 0.29358,0.315108 0.53375,0.731282 0.53375,0.924837 0,0.532044 0.53195,0.421923 0.56847,-0.117691 z m -19.51805,-0.483526 c 0.0916,-0.238798 0.0467,-0.346508 -0.10542,-0.252502 -0.14609,0.09015 -0.26526,0.277574 -0.26526,0.416447 0,0.385979 0.19225,0.30093 0.37072,-0.16395 z m -0.50488,-0.65691 c 0.0911,-0.147586 0.0379,-0.268332 -0.11838,-0.268332 -0.15637,0 -0.28416,0.120739 -0.28416,0.268332 0,0.147589 0.0532,0.268347 0.11838,0.268347 0.0651,0 0.19289,-0.120778 0.28416,-0.268347 z m 8.96684,-1.627951 c 1.56739,-0.361287 4.9015,-1.978277 5.54485,-2.689162 l 0.51123,-0.564922 -2.41304,0.170396 c -1.32719,0.0937 -2.77531,0.275069 -3.21808,0.40299 -0.44277,0.127944 -1.55242,0.388117 -2.46595,0.578196 -1.63359,0.339916 -2.03968,0.778754 -0.7206,0.778754 1.37671,0 2.36259,1.131978 1.2411,1.425048 -0.98337,0.256984 0.35212,0.168013 1.52049,-0.101322 z m 7.54431,-1.80982 c -0.71783,-0.893236 -0.79564,-1.135811 -0.56164,-1.75125 0.22321,-0.587061 0.19589,-0.714392 -0.15294,-0.714392 -0.28507,0 -0.36851,0.146139 -0.25395,0.44467 0.10085,0.262825 -0.10678,0.864005 -0.50797,1.470105 -0.3732,0.56398 -0.67858,1.076439 -0.67858,1.138792 0,0.06237 0.42464,0.101322 0.94365,0.08662 0.715,-0.02033 1.05535,0.132483 1.40461,0.630317 0.38875,0.554181 0.47498,0.584648 0.55049,0.194538 0.0493,-0.254387 -0.28537,-0.929119 -0.74366,-1.499386 z m -12.4861,0.486069 c 0.47558,-0.204365 0.45265,-0.232765 -0.20123,-0.249479 -0.40586,-0.01024 -0.73792,0.101914 -0.73792,0.249479 0,0.314955 0.20615,0.314955 0.93919,0 z m -2.8902,-0.162119 c -0.089,-0.08914 -0.3206,-0.09867 -0.5143,-0.02118 -0.2141,0.08571 -0.15047,0.149246 0.1621,0.162119 0.28283,0.01161 0.44135,-0.05183 0.35217,-0.140932 z"
           id="path130579"
           sodipodi:nodetypes="sssssscsssssssscssssssssssssssssssssssssssssssssssssssssscsssssssssssssssssssssssssssssssssssssssssssssssssssssscsssssscsssscssssssssssssssssssssssssssssssssssssscssssssssssssssssssssssssssssssscsssssssssssssssssssssssssssssssssssssscsssssssssssssssssssssssssssssssssssssssssssssssssssssssssssscsssssssssssssssssssssccssscssccsssssssssssssssssssssssssssssssssssssssssssssssssscssssssssssssssssssssssssssss" />
      </g>
    </g>
  </g>
</svg>
